<svg xmlns="http://www.w3.org/2000/svg" width="115.415" height="59.169" viewBox="0 0 115.415 59.169">
  <g id="_3375f35c8a0ec8242241bf3d7090a292" data-name="3375f35c8a0ec8242241bf3d7090a292" transform="translate(610.579 -1229.954)">
    <path id="Path_243" data-name="Path 243" d="M73.1,276.959a5.725,5.725,0,0,1-2.646.905c-1.4.058-2.8.313-4.2.395a20.885,20.885,0,0,1-2.692-.1c-1.961-.139-3.911-.3-5.86-.464-.1-.012-.22.023-.3-.012a1.443,1.443,0,0,0-1.567.418c-1.021.905-2.031,1.833-3.052,2.739-.673.592-1.369,1.149-2.031,1.752-1.218,1.079-2.425,2.182-3.644,3.272-.6.545-1.207,1.1-1.8,1.659-.673.65-1.334,1.311-2,1.973a1.534,1.534,0,0,0-.151.29,3.563,3.563,0,0,0,1.81-.325c.615-.348,1.218-.743,1.833-1.1a16.479,16.479,0,0,0,3.04-2.634c.812-.777,1.567-1.6,2.367-2.39,1.3-1.276,2.611-2.541,3.9-3.806.348-.348.65-.743,1.01-1.068a.489.489,0,0,1,.847.151.586.586,0,0,1,0,.464A20.058,20.058,0,0,0,56.843,283c-.325,1.2-.58,2.414-.847,3.632-.058.255-.058.511-.1.847.557-.325,1.01-.615,1.5-.859,1.149-.58,2.309-1.137,3.458-1.729a4.816,4.816,0,0,1,2.576-.395,1.643,1.643,0,0,1,1.416,1.659,11.819,11.819,0,0,1-.337,2.286,9.068,9.068,0,0,1-.905,2.518c-.812,1.543-1.671,3.075-2.565,4.572-.812,1.381-1.694,2.727-2.553,4.085a3.783,3.783,0,0,0-.429.731c.7-.766,1.427-1.485,2.066-2.3,1.265-1.6,2.437-3.272,3.69-4.885,1.021-1.3,2.077-2.576,3.145-3.841,1.033-1.218,2.089-2.4,3.145-3.6.267-.3.58-.58.87-.87a60.258,60.258,0,0,1,5.454-4.723c.8-.638,1.6-1.276,2.4-1.9.22-.174.441-.418.754-.2.244.174.267.464.081.882a.255.255,0,0,0,0,.244c.1-.116.22-.221.325-.348a15.3,15.3,0,0,1,2.7-2.565c.476-.383.928-.8,1.416-1.172a6.694,6.694,0,0,1,1.01-.58.618.618,0,0,0,.383-.685c-.093-1.358-.116-2.727-.244-4.1-.162-1.868-.139-3.748-.371-5.616a34.455,34.455,0,0,1-.081-3.795c0-.255.035-.511.313-.592.313-.093.487.093.638.348a2.88,2.88,0,0,1,.325,1.543c.035,1.4-.035,2.808.035,4.212a26.8,26.8,0,0,0,.429,4.073,16.11,16.11,0,0,1,.116,2.808,2.443,2.443,0,0,0,.162,1.253c.058.1-.023.3-.07.453a3.97,3.97,0,0,0-.209.627,6.832,6.832,0,0,0-.012.975c.046,1.044.128,2.1.174,3.145.07,1.439.128,2.889.2,4.328.012.3.058.592.093.975a3.2,3.2,0,0,0,.348-.279,47.544,47.544,0,0,1,3.5-3.5c1.346-1.253,2.623-2.576,3.957-3.841.592-.557,1.218-1.079,1.833-1.6,1.126-.952,2.24-1.9,3.388-2.831,1.184-.975,2.39-1.926,3.586-2.866a39.138,39.138,0,0,1,4.1-2.785c.65-.383,1.323-.719,1.984-1.091a9.673,9.673,0,0,1,1-.58,16.42,16.42,0,0,1,3.516-1.23,4.706,4.706,0,0,1,1.276-.023,1.025,1.025,0,0,1,.986.928,4.852,4.852,0,0,1-.07,2.124c-.279,1.311-.6,2.623-.94,3.922a5.444,5.444,0,0,1-.441,1c-.615,1.323-1.2,2.669-1.868,3.957-.6,1.149-1.358,2.228-1.984,3.365a19.678,19.678,0,0,0-1.346,3.412.481.481,0,0,0,.255.569,4.051,4.051,0,0,0,.917.476,9.223,9.223,0,0,0,4.526.395c.766-.116,1.532-.2,2.309-.267.638-.058.986.325.812.952a10.875,10.875,0,0,1-.685,1.764,18.768,18.768,0,0,1-1.474,2.448c-.754,1.033-1.4,2.135-2.112,3.2-.29.441-.65.836-.94,1.276a5.733,5.733,0,0,0-1.172,2.124,3.877,3.877,0,0,0,1.822.174c.627-.07,1.253-.209,1.868-.313a.087.087,0,0,0,.058-.012c.986-.371,2-.719,2.971-1.126.882-.383,1.706-.882,2.6-1.242a8.133,8.133,0,0,1,2.066-.487c-.058.07-.1.174-.186.209-1.509.859-2.994,1.752-4.537,2.541a12.954,12.954,0,0,1-3.551,1.265,14.37,14.37,0,0,1-1.555.232,6.177,6.177,0,0,1-.917-.058,8.057,8.057,0,0,1-.905-.116,2.477,2.477,0,0,1-.766-.313c-.1-.07-.139-.325-.116-.487a4.816,4.816,0,0,1,1.044-2.193c1.021-1.334,1.984-2.692,2.866-4.12.464-.766,1.033-1.474,1.485-2.24.429-.731.777-1.52,1.16-2.286.023-.046,0-.116-.012-.255l-1.451.139c-.661.07-1.334.139-2,.2a10.547,10.547,0,0,1-3.609-.522,2.5,2.5,0,0,1-1.613-1.4,1.716,1.716,0,0,1,.128-1.369c.487-1.149.986-2.286,1.555-3.388s1.242-2.158,1.857-3.238A24.637,24.637,0,0,0,115,269.149a38.793,38.793,0,0,0,.7-3.853c.093-.6-.128-.812-.731-.719a8.964,8.964,0,0,0-1.833.429,28.3,28.3,0,0,0-5.686,2.843c-1.056.7-2.089,1.439-3.087,2.193-1.346,1.021-2.681,2.077-3.992,3.145-1.207.975-2.4,1.961-3.551,2.994-1.369,1.253-2.681,2.576-4.027,3.853-.812.777-1.671,1.5-2.472,2.274-.917.905-1.787,1.845-2.692,2.762a1.7,1.7,0,0,0-.487,1.555c.162,1.172.22,2.356.371,3.539.22,1.775.453,3.563.743,5.326s.65,3.481,1.033,5.222.824,3.446,1.242,5.175a2.69,2.69,0,0,0,.186.511.843.843,0,0,1-.093.928c-.232.29-.545.22-.847.093a7.022,7.022,0,0,1-1.868-1.033,28.662,28.662,0,0,0-2.936-2.089,23.6,23.6,0,0,1-3.771-2.924,6.8,6.8,0,0,1-1.938-2.785,4.377,4.377,0,0,1-.139-2.054,13.208,13.208,0,0,1,1.984-4.642,30.87,30.87,0,0,1,2.936-3.98c.395-.464.754-.963,1.137-1.451a1.841,1.841,0,0,1,.441-.5.881.881,0,0,0,.406-.94c-.1-1.335-.209-2.669-.29-4.015s-.093-2.681-.162-4.027c-.023-.5-.116-1-.186-1.532a3.167,3.167,0,0,0-1.4.812,17.035,17.035,0,0,0-2.773,2.39,15.7,15.7,0,0,0-3.11,4.282c-.279.65-.569,1.3-.882,1.938-.2.395-.464.754-.685,1.149-.232.429-.418.882-.65,1.311-.36.685-.719,1.369-1.1,2.031-.348.6-.7,1.207-1.091,1.764a19.2,19.2,0,0,0-1.323,2.263c-.081.151-.244.325-.383.337a.8.8,0,0,1-.592-.174.628.628,0,0,1,.012-.557c.3-.58.627-1.149.963-1.706.615-1.01,1.276-2,1.868-3.017.545-.952,1.033-1.938,1.532-2.924.418-.836.836-1.683,1.207-2.541.36-.824.661-1.659,1-2.495-.023-.035-.058-.07-.081-.1a1.719,1.719,0,0,0-.441.209c-.8.789-1.729,1.4-2.588,2.112s-1.694,1.416-2.483,2.182c-1.068,1.033-2.112,2.1-3.11,3.2-.928,1.021-1.8,2.112-2.669,3.18-.8.975-1.6,1.949-2.367,2.959-.986,1.3-1.926,2.634-2.913,3.934-.406.534-.859,1.021-1.311,1.532-.58.661-1.2,1.288-1.752,1.961a6.272,6.272,0,0,1-1.671,1.416c-.209.128-.534.058-.847.093a5.234,5.234,0,0,0,.093,1.845c.116.638.232,1.288.325,1.926a.871.871,0,0,1-.5.836.429.429,0,0,1-.337-.046,1.2,1.2,0,0,1-.337-.429,1.381,1.381,0,0,0-.453-.545,2.27,2.27,0,0,1-.7-.905,24.359,24.359,0,0,0-2.089-4.282c-.615-1.172-1.253-2.332-1.9-3.493a19.952,19.952,0,0,0-1.439-2.042,8.1,8.1,0,0,0-.638.661c-.406.534-.789,1.091-1.184,1.636-.313.429-.65.836-.952,1.265-.777,1.079-1.532,2.17-2.309,3.226-.638.87-1.3,1.729-2,2.553a8.911,8.911,0,0,1-1.276,1.091.5.5,0,0,1-.673,0,.556.556,0,0,1-.209-.65c.174-.627.313-1.265.545-1.88.3-.8.65-1.59,1.021-2.356.731-1.509,1.485-2.994,2.24-4.491a11.89,11.89,0,0,1,1.659-2.414,5.109,5.109,0,0,1,.986-.812,1.519,1.519,0,0,1,1.775.1c.209.139.395.29.58.441.22.186.395.128.58-.081.766-.847,1.509-1.717,2.309-2.53.708-.731,1.474-1.4,2.24-2.089.406-.371.847-.7,1.288-1.033a.69.69,0,0,0,.279-.511c.278-2.147.963-4.2,1.439-6.313.07-.29.116-.569.186-.986a4.131,4.131,0,0,0-1.079.893c-.754.766-1.532,1.52-2.286,2.286-.36.36-.7.743-1.044,1.114-.046.046-.07.1-.116.139-.534.5-1.068.986-1.59,1.485-.464.453-.917.928-1.369,1.393a12.168,12.168,0,0,1-3.377,2.3,4.762,4.762,0,0,1-2.495.476,3.38,3.38,0,0,1-.94-.232.454.454,0,0,1-.255-.743,6.6,6.6,0,0,1,.882-1.091c.615-.627,1.253-1.218,1.9-1.81.836-.766,1.694-1.52,2.541-2.286.754-.685,1.509-1.369,2.274-2.042s1.555-1.311,2.332-1.984c1-.87,2-1.741,2.982-2.623a5.915,5.915,0,0,0,.406-.487c-.337-.07-.569-.139-.8-.174-1.52-.209-3.029-.418-4.549-.592-1.381-.162-2.762-.279-4.143-.429-.789-.081-1.578-.209-2.367-.3-.522-.07-1.056-.116-1.578-.186a2.74,2.74,0,0,1-.708-.151.362.362,0,0,1-.046-.673.884.884,0,0,1,.337-.151c1.1-.174,2.216-.348,3.319-.511a5.914,5.914,0,0,0,.905-.162,10.815,10.815,0,0,1,2.1-.395c1.044-.151,2.089-.383,3.133-.592,1.114-.22,2.228-.464,3.342-.708a13.547,13.547,0,0,0,1.532-.418c.766-.255,1.52-.58,2.3-.836.7-.232,1.4-.429,2.112-.65.406-.128.8-.3,1.207-.418a1.385,1.385,0,0,1,.534-.035c.731.139.859.545.464,1.16a27.647,27.647,0,0,1-4.688,5.315,2.032,2.032,0,0,0-.232.29c.5.058.917.128,1.334.151,1.369.093,2.727.162,4.1.244a32.714,32.714,0,0,0,3.354.209,15.628,15.628,0,0,0,3.876-.487,2.671,2.671,0,0,0,1.218-.5.562.562,0,0,0,.209-.627c-.093-.418-.093-.847-.22-1.253a4.7,4.7,0,0,0-.557-1.137c-.534-.8-1.114-1.567-1.683-2.332-.627-.859-1.23-1.729-1.88-2.565-.8-1.021-1.648-2.019-2.472-3.029-.592-.719-1.184-1.451-1.787-2.17-.209-.255-.429-.487-.65-.731-.65-.731-1.265-1.5-1.949-2.193a18.185,18.185,0,0,0-2.611-2.565,1.392,1.392,0,0,1-.139-.128,42.852,42.852,0,0,0-4.456-4c-.731-.615-1.52-1.16-2.286-1.729-.418-.313-.836-.65-1.276-.94-1.358-.917-2.2-.534-3.168.522a16.691,16.691,0,0,0-2.182,3.168c-.777,1.416-1.485,2.855-2.124,4.34-.731,1.729-1.416,3.481-2.066,5.233-.8,2.158-1.532,4.352-2.309,6.522-.511,1.416-1.044,2.831-1.6,4.236s-1.149,2.785-1.717,4.178c-.244.58-.453,1.184-.719,1.752-.557,1.184-1.126,2.356-1.717,3.516A6.606,6.606,0,0,1,31,285.72a.658.658,0,0,1-1.207-.151,3.348,3.348,0,0,1-.3-.731,4.559,4.559,0,0,1-.012-.812c-.1.128-.174.174-.209.232-.6,1.578-1.184,3.168-1.822,4.734-.789,1.949-1.625,3.876-2.425,5.814-.325.777-.592,1.567-.94,2.332-.522,1.149-1.079,2.286-1.636,3.423-.453.917-.87,1.845-1.392,2.715a20.708,20.708,0,0,1-2.112,3.272,3.443,3.443,0,0,1-1.16.963c-.511.22-.963,0-.917-.545a15.922,15.922,0,0,1,.383-2.344c.255-1.091.557-2.17.87-3.249s.673-2.182,1.044-3.261q.923-2.768,1.868-5.512c.383-1.114.789-2.228,1.172-3.354.337-.963.638-1.938.975-2.889.255-.708.545-1.416.812-2.112.615-1.555,1.218-3.122,1.845-4.676.36-.905.754-1.8,1.079-2.715.313-.882.592-1.787.835-2.681.139-.522-.1-.731-.638-.6a8.971,8.971,0,0,0-2.9,1.4c-.777.522-1.509,1.114-2.309,1.59a41.443,41.443,0,0,0-4.317,3.365c-1,.836-1.95,1.729-2.889,2.634-1,.952-1.961,1.938-2.936,2.924-.371.371-.708.777-1.068,1.172-.162.174-.325.244-.534.081a.5.5,0,0,1-.2-.592,1.739,1.739,0,0,1,.22-.371c.592-.847,1.2-1.694,1.8-2.541,1.393-1.938,2.8-3.864,4.189-5.8.777-1.079,1.543-2.158,2.3-3.249.511-.743.975-1.5,1.474-2.24.151-.22.348-.406.511-.615.8-1.056,1.6-2.112,2.39-3.168.464-.615.917-1.253,1.393-1.857a23.52,23.52,0,0,0,1.775-2.483c.383-.65.743-1.311,1.114-1.961s.719-1.288,1.079-1.926a.531.531,0,0,1,.743-.116.387.387,0,0,1,.07.592,14.049,14.049,0,0,0-1.52,3.11,1.014,1.014,0,0,1-.22.29c-.58.743-1.16,1.474-1.729,2.216-.162.209-.3.441-.464.65-.8,1.056-1.659,2.066-2.39,3.168-.534.8-1.2,1.474-1.752,2.251-.522.719-1,1.474-1.509,2.2-.3.441-.615.859-.928,1.3-.777,1.091-1.567,2.182-2.344,3.284-.6.847-1.184,1.694-1.741,2.611a1.213,1.213,0,0,0,.267-.151c1.462-1.242,2.913-2.495,4.386-3.713.777-.638,1.6-1.2,2.425-1.775.777-.557,1.555-1.114,2.367-1.636a10.8,10.8,0,0,1,3.18-1.555,1.54,1.54,0,0,1,1.288.232.913.913,0,0,1,.464.882,5.9,5.9,0,0,1-.162,1.091c-.162.627-.348,1.253-.534,1.88-.07.232-.209.441-.3.673-.3.754-.615,1.509-.905,2.274-.441,1.114-.894,2.228-1.323,3.354-.545,1.427-1.079,2.866-1.6,4.294-.383,1.033-.766,2.066-1.126,3.11-.429,1.23-.824,2.472-1.242,3.7-.348,1.021-.754,2.019-1.091,3.04-.395,1.218-.766,2.437-1.126,3.667-.279.94-.545,1.88-.8,2.831-.162.6-.313,1.218-.464,1.833a1.223,1.223,0,0,0,.012.348,4.305,4.305,0,0,0,1.23-1.427,46.8,46.8,0,0,0,2.541-4.537c.371-.812.8-1.6,1.2-2.414.2-.406.325-.836.511-1.242.58-1.323,1.184-2.646,1.741-3.98.58-1.381,1.114-2.785,1.659-4.189.65-1.671,1.3-3.354,1.95-5.025.313-.812.661-1.625.952-2.448.209-.592.348-1.207.545-1.81.1-.325.244-.65.36-.975.65-1.915,1.288-3.829,1.95-5.732.325-.94.673-1.88,1.01-2.82.186-.5.383-.986.557-1.485.348-1,.719-1.984,1.021-2.994.592-1.926,1.3-3.818,1.984-5.709.65-1.787,1.393-3.528,2.158-5.268.453-1.044,1-2.054,1.555-3.052a6.545,6.545,0,0,1,.847-1.044c.151-.174.348-.348.58-.209a.608.608,0,0,1,.325.673,3.418,3.418,0,0,1-.2.58c-.429.905-.859,1.81-1.288,2.7-.162.348-.325.7-.487,1.056-.337.719-.685,1.427-1,2.158-.255.615-.441,1.265-.685,1.891-.151.371-.337.731-.522,1.091a5.726,5.726,0,0,0-.7,1.648,1.455,1.455,0,0,1-.1.29,5.9,5.9,0,0,0-.557,1.532,11.574,11.574,0,0,1-.673,1.636c-.522,1.346-1.021,2.7-1.52,4.061-.719,1.938-1.427,3.864-2.135,5.8-.151.418-.267.859-.418,1.276-.209.638-.453,1.265-.638,1.9a23.694,23.694,0,0,1-.673,2.4,16.3,16.3,0,0,0-.557,2.309,9.257,9.257,0,0,0-.209,1.509,2.387,2.387,0,0,0,.151.557,4.966,4.966,0,0,0,.476-.661A25.719,25.719,0,0,0,32.6,281.02c.337-.952.905-1.822,1.323-2.762s.754-1.891,1.137-2.831c.313-.8.65-1.59.94-2.39.534-1.451,1.033-2.924,1.578-4.375.6-1.625,1.218-3.249,1.833-4.874.569-1.485,1.1-2.982,1.706-4.456.418-1.021.894-2.008,1.369-3.005.371-.777.731-1.555,1.16-2.3a12.462,12.462,0,0,1,2.808-3.644,2.477,2.477,0,0,1,2.46-.453,4.2,4.2,0,0,1,1.694.963,9.334,9.334,0,0,0,.859.592c1.068.847,2.147,1.694,3.191,2.565,1.056.894,2.112,1.787,3.11,2.75.638.615,1.334,1.2,1.938,1.845,1.439,1.532,2.785,3.145,4.224,4.676,1.381,1.485,2.576,3.1,3.829,4.688.719.917,1.451,1.822,2.124,2.773a26.573,26.573,0,0,1,2.762,4.618,8.068,8.068,0,0,1,.453,1.555ZM86.2,287c-.046-.023-.093-.058-.139-.081-.22.232-.464.453-.661.7a45.86,45.86,0,0,0-3.2,4.259,13.663,13.663,0,0,0-2.216,5,2.965,2.965,0,0,0,.29,2.019,10.96,10.96,0,0,0,2.831,3.017c.418.325.836.65,1.265.963.371.279.754.557,1.149.812.464.3.94.557,1.416.847.777.476,1.555.963,2.332,1.451a.939.939,0,0,0,.348.07A115.553,115.553,0,0,1,86.2,287Zm-30.5,14.946c.046.012.081.023.128.035a1.7,1.7,0,0,0,.186-.22c.2-.325.383-.673.6-1,.777-1.172,1.59-2.321,2.344-3.516.963-1.543,1.88-3.11,2.8-4.676a14.387,14.387,0,0,0,1.95-4.526,8.437,8.437,0,0,0,.186-1.706c0-.719-.337-.963-1.068-.917a5.439,5.439,0,0,0-2.158.58c-.777.395-1.6.708-2.367,1.114-.673.36-1.323.777-1.973,1.2a1.351,1.351,0,0,0-.766,1.172c0,.348-.058.685-.07,1.033-.058,1.207-.162,2.4-.151,3.609.012,1.961.093,3.922.174,5.872.012.661.116,1.3.186,1.95Zm-1.149,2.6a1.084,1.084,0,0,1,.116-.058c0-.754.035-1.509-.012-2.263-.081-1.567-.267-3.133-.313-4.7-.058-1.915-.023-3.841-.023-5.756,0-.325.081-.65.093-.975.023-.348,0-.708,0-1.2a32.168,32.168,0,0,0-5.466,5.489c.116.174.2.313.29.453.522.754,1.079,1.485,1.543,2.286.836,1.427,1.6,2.9,2.4,4.34.453.8.917,1.578,1.369,2.379Zm-9.573-29.289c0,.058.012.116.012.162.824.093,1.659.174,2.483.279l2.495.313c1.694.232,3.388.511,5.094.65a1.776,1.776,0,0,0,1.752-.615,4.762,4.762,0,0,1,.348-.337c.708-.731,1.427-1.451,2.112-2.216.58-.65,1.091-1.346,1.706-2.112a1.688,1.688,0,0,0-.348.023c-.348.116-.685.244-1.033.36a17.822,17.822,0,0,0-1.741.545,39.72,39.72,0,0,1-6.1,1.717c-.371.093-.766.1-1.137.186-.8.162-1.59.36-2.39.5-1.091.186-2.17.36-3.249.545ZM47.711,295.3c-.743-.975-1.439-1.056-2.193-.232a9.02,9.02,0,0,0-1.184,1.555c-.7,1.172-1.334,2.379-1.961,3.6-.406.789-.754,1.6-1.126,2.414-.081.162-.058.406-.186.511-.395.337-.244.894-.557,1.253-.046.046,0,.174.012.3.093-.058.162-.07.2-.116.661-.8,1.358-1.578,1.973-2.414,1.184-1.6,2.321-3.249,3.493-4.862.487-.685,1.01-1.334,1.532-2.008Z" transform="translate(-620 981)" fill="#fff" stroke="#fff" stroke-width="1"/>
  </g>
</svg>
