<svg xmlns="http://www.w3.org/2000/svg" xmlns:xlink="http://www.w3.org/1999/xlink" width="194.44" height="361.376" viewBox="0 0 194.44 361.376">
  <defs>
    <linearGradient id="linear-gradient" x1="4.688" y1="3.814" x2="5.688" y2="3.814" gradientUnits="objectBoundingBox">
      <stop offset="0" stop-color="#f87b58"/>
      <stop offset="0.5" stop-color="#f8c548"/>
      <stop offset="1" stop-color="#f89c51"/>
    </linearGradient>
    <linearGradient id="linear-gradient-2" y1="9.024" x2="1" y2="9.024" gradientUnits="objectBoundingBox">
      <stop offset="0" stop-color="#4f68ca"/>
      <stop offset="1" stop-color="#5aceed"/>
    </linearGradient>
    <linearGradient id="linear-gradient-3" x1="10.551" y1="11.382" x2="11.551" y2="11.382" gradientUnits="objectBoundingBox">
      <stop offset="0" stop-color="#7658f4"/>
      <stop offset="1" stop-color="#e1a1ed"/>
    </linearGradient>
    <linearGradient id="linear-gradient-4" x1="18.967" y1="39.478" x2="19.967" y2="39.478" xlink:href="#linear-gradient-2"/>
  </defs>
  <g id="Boy" transform="translate(0.016 0.005)">
    <g id="Group_129" data-name="Group 129">
      <path id="Path_73" data-name="Path 73" d="M114.5,353.5c-5.5-.3-11.7-6.6-11.7-6.6l-12.3-1.6s-3.8,11.6.3,14,28.8,3.1,28.8,0S119.2,353.7,114.5,353.5Z" fill="#4b44be"/>
      <path id="Path_74" data-name="Path 74" d="M30.8,353.1c-4.8-2.7-7.5-11.2-7.5-11.2L13,335s-8.7,8.7-6,12.6,24.3,15.8,25.7,13S34.9,355.5,30.8,353.1Z" fill="#4b44be"/>
    </g>
    <path id="Path_75" data-name="Path 75" d="M49.2,22.9S61-2.1,80,10.9,99.4,41,93.7,49.2c-6.7,9.7-5,17.6-3.8,20.7A3.748,3.748,0,0,0,91.7,72l32.1,18,12.8,12.1,30.8-38.8s5-7,14-7,13,3,13,3,1,4-10,7l-11,3-28,50s-8.3,3.5-17.2-3.9a197.547,197.547,0,0,1-21.8-21.1l-1,116,3.4,33.2-1.4,19.6c.1,1.8-.7,21.2-.8,23l-2.2,30-2.7,30.4-11.2-1.4-1.9-22L84.2,244l-.5-71.5L64.3,217.3l.7,26.1L49,293a39.864,39.864,0,0,1-2.5,6L23.6,342.2l-10.8-6.7,12.3-31.2c1.3-2.7,7.7-23.4,8.5-26.3l8.2-38.8L77.4,103.5l-17.9,9.1s-13.1,29.3-15.1,32.3-25.9,33.2-26.9,37.2-4.8,11.7-9.8,13.7-14,5.3-1-13.7c10.2-14.9,16.7-26,19.1-30a35.925,35.925,0,0,0,1.7-3.4l13.5-34L62.5,80.2l2.9-2.1,6.1-4.8a2.882,2.882,0,0,0,1.1-2.6,17.883,17.883,0,0,0-6.8-11.6C58.8,53.5,44.6,42.9,49.2,22.9Z" fill="url(#linear-gradient)"/>
    <path id="Path_76" data-name="Path 76" d="M53.4,174.3l-12,65,24,5,15-54L84,244.2h25.1l2.3-83.9Z" fill="url(#linear-gradient-2)"/>
    <path id="Path_77" data-name="Path 77" d="M40.5,115.4s7.7-27.8,23.2-37c1.6-.9,4.4-3.8,4.6-2.1.3,3,2,10,9,10,11,0,14.2-9.2,14.2-14.2,0-1.5,6.2-1.2,11.6-.3,5.1.8,10.2,3,13.6,6.8l10.2,14.3-9.5,10.5-3,1.6-3,55.4s-22.1,10.2-42,13a143.167,143.167,0,0,1-16,1l4-57Z" fill="url(#linear-gradient-3)"/>
    <path id="Path_78" data-name="Path 78" d="M56.1,40.5A105,105,0,0,1,67.5,28.8c5.8-4.8,8.8-7.6,8.8-7.6s7.9,5.8,11.1,6.9,8,3.1,8,3.1,2.7-9-4-10.1-26.8-8.4-31-5.2S49.1,28.3,48.1,32.7s1.5,10.1,3.1,11.2c.9.6-1.6-4.5-.2-5.5C52,37.5,56.1,40.5,56.1,40.5Z" fill="url(#linear-gradient-4)"/>
    <path id="Path_79" data-name="Path 79" d="M48.1,32.7,110.8,18s1.2-2.9-1.1-3-16.6,4.7-16.6,4.7S86.9,1.5,66.7,1.9c0,0,.8-1.8-.3-1.9a24.285,24.285,0,0,0-6.7,1.7c-.4.4.8,1.6.2,2.1S41.7,12.7,48.1,32.7Z" fill="#4b44be"/>
    <path id="Path_80" data-name="Path 80" d="M91.9,51.3s-4.1,5.1-7.4,6.2-1.4,1.2,0,5.3a23.088,23.088,0,0,0,3,6.1S89.3,52.8,91.9,51.3Z" opacity="0.07"/>
    <path id="Path_81" data-name="Path 81" d="M59.9,3.9s2.8,2.7,1,9.8-2.4,9.3-.9,12,.4,4.2.4,4.2L48.1,32.8C48.2,32.7,40.5,14.7,59.9,3.9Z" opacity="0.07"/>
    <path id="Path_82" data-name="Path 82" d="M57.4,117.3s3.9-5.6,4.3-10.7-1.8,10.1.7,19.2-.4,17,4.7,20.2,1.1,14.1,2.2,18.8a9.077,9.077,0,0,0,5.4,6.2s-.7,2.5-9.4,2.9-11.9.4-11.9.4Z" opacity="0.07"/>
  </g>
</svg>
