<svg xmlns="http://www.w3.org/2000/svg" width="103.46" height="103.459" viewBox="0 0 103.46 103.459">
  <g id="Computers-Devices-Electronics_Desktop-Actions_monitor-lock" data-name="Computers-Devices-Electronics / Desktop-Actions / monitor-lock" transform="translate(1.5 1.5)">
    <g id="Group_91" data-name="Group 91">
      <g id="monitor-lock">
        <path id="Shape_453" data-name="Shape 453" d="M253.25,726.842,256.6,706.75" transform="translate(-219.763 -639.777)" fill="none" stroke="#27f39f" stroke-linecap="round" stroke-linejoin="round" stroke-width="3"/>
        <path id="Shape_454" data-name="Shape 454" d="M251,711.25h23.441" transform="translate(-227.559 -624.185)" fill="none" stroke="#27f39f" stroke-linecap="round" stroke-linejoin="round" stroke-width="3"/>
        <path id="Shape_455" data-name="Shape 455" d="M245.75,703.75h53.579" transform="translate(-245.75 -650.171)" fill="none" stroke="#27f39f" stroke-linecap="round" stroke-linejoin="round" stroke-width="3"/>
        <path id="Shape_456" data-name="Shape 456" d="M292.631,758.723H259.145a13.394,13.394,0,0,1-13.395-13.395V705.144a13.394,13.394,0,0,1,13.395-13.395h73.67a13.394,13.394,0,0,1,13.395,13.395v26.789" transform="translate(-245.75 -691.75)" fill="none" stroke="#27f39f" stroke-linecap="round" stroke-linejoin="round" stroke-width="3"/>
        <path id="Rectangle-path_51" data-name="Rectangle-path 51" d="M259.25,713.447a6.7,6.7,0,0,1,6.7-6.7h26.789a6.7,6.7,0,0,1,6.7,6.7v20.092a6.7,6.7,0,0,1-6.7,6.7H265.947a6.7,6.7,0,0,1-6.7-6.7Z" transform="translate(-198.974 -639.777)" fill="none" stroke="#27f39f" stroke-linecap="round" stroke-linejoin="round" stroke-width="3"/>
        <path id="Shape_457" data-name="Shape 457" d="M274.145,702.25h0a13.394,13.394,0,0,0-13.395,13.395v6.7h26.789v-6.7A13.394,13.394,0,0,0,274.145,702.25Z" transform="translate(-193.777 -655.369)" fill="none" stroke="#27f39f" stroke-linecap="round" stroke-linejoin="round" stroke-width="3"/>
        <path id="Shape_458" data-name="Shape 458" d="M265.049,710.154a1.674,1.674,0,1,1-1.674,1.674,1.675,1.675,0,0,1,1.674-1.674" transform="translate(-184.682 -627.983)" fill="none" stroke="#27f39f" stroke-linecap="round" stroke-linejoin="round" stroke-width="3"/>
      </g>
    </g>
  </g>
</svg>
