<svg xmlns="http://www.w3.org/2000/svg" xmlns:xlink="http://www.w3.org/1999/xlink" width="680.83" height="377.541" viewBox="0 0 680.83 377.541">
  <defs>
    <linearGradient id="linear-gradient" x1="0.709" y1="0.047" x2="0.372" y2="0.473" gradientUnits="objectBoundingBox">
      <stop offset="0" stop-color="#30cef7"/>
      <stop offset="1" stop-color="#38ecaf"/>
    </linearGradient>
    <linearGradient id="linear-gradient-2" x1="0.5" x2="-0.075" y2="1.153" gradientUnits="objectBoundingBox">
      <stop offset="0" stop-color="#30cdfc"/>
      <stop offset="1" stop-color="#39f0a7"/>
    </linearGradient>
  </defs>
  <g id="drawkit-full-stack-man-colour" transform="translate(394.83 -116.314)">
    <g id="Group_175" data-name="Group 175" transform="translate(-293.065 266.416)">
      <ellipse id="Ellipse_40" data-name="Ellipse 40" cx="98" cy="12.5" rx="98" ry="12.5" transform="translate(-20.463 202.44)" fill="#071931"/>
      <g id="Group_177" data-name="Group 177" transform="translate(327.44 0)">
        <path id="Path_241" data-name="Path 241" d="M0,0" transform="translate(251.626 111.06)" fill="none" stroke="#f3f3f3" stroke-linecap="round" stroke-width="2"/>
        <g id="Group_184" data-name="Group 184">
          <g id="Group_186" data-name="Group 186" transform="translate(0)">
            <rect id="Rectangle_41" data-name="Rectangle 41" width="169.05" height="207.049" transform="translate(169.05 207.049) rotate(180)" fill="#21426a"/>
            <g id="Group_187" data-name="Group 187" transform="translate(13.203 14.134)">
              <g id="Group_193" data-name="Group 193" transform="translate(0 0)">
                <rect id="Rectangle_43" data-name="Rectangle 43" width="115.086" height="22.186" transform="translate(115.086 22.186) rotate(180)" fill="#0d2341"/>
                <circle id="Ellipse_24" data-name="Ellipse 24" cx="3.893" cy="3.893" r="3.893" transform="translate(4.379 6.197)" fill="#fff"/>
                <line id="Line_6" data-name="Line 6" x1="91.052" transform="translate(17.388 8.313)" fill="none" stroke="#fff" stroke-linecap="round" stroke-linejoin="round" stroke-width="2"/>
                <line id="Line_23" data-name="Line 23" x1="91.052" transform="translate(17.388 12.757)" fill="none" stroke="#fff" stroke-linecap="round" stroke-linejoin="round" stroke-width="2"/>
              </g>
            </g>
            <g id="Group_194" data-name="Group 194" transform="translate(13.203 52.159)">
              <g id="Group_193-2" data-name="Group 193" transform="translate(0 0)">
                <rect id="Rectangle_43-2" data-name="Rectangle 43" width="115.086" height="22.186" transform="translate(115.086 22.186) rotate(180)" fill="#0d2341"/>
                <circle id="Ellipse_24-2" data-name="Ellipse 24" cx="3.893" cy="3.893" r="3.893" transform="translate(4.379 6.197)" fill="#fff"/>
                <line id="Line_6-2" data-name="Line 6" x1="91.052" transform="translate(17.388 8.313)" fill="none" stroke="#fff" stroke-linecap="round" stroke-linejoin="round" stroke-width="2"/>
                <line id="Line_23-2" data-name="Line 23" x1="91.052" transform="translate(17.388 12.757)" fill="none" stroke="#fff" stroke-linecap="round" stroke-linejoin="round" stroke-width="2"/>
              </g>
            </g>
            <g id="Group_195" data-name="Group 195" transform="translate(13.203 90.184)">
              <g id="Group_193-3" data-name="Group 193" transform="translate(0 0)">
                <rect id="Rectangle_43-3" data-name="Rectangle 43" width="115.086" height="22.186" transform="translate(115.086 22.186) rotate(180)" fill="#0d2341"/>
                <circle id="Ellipse_24-3" data-name="Ellipse 24" cx="3.893" cy="3.893" r="3.893" transform="translate(4.379 6.197)" fill="#fff"/>
                <line id="Line_6-3" data-name="Line 6" x1="91.052" transform="translate(17.388 8.313)" fill="none" stroke="#fff" stroke-linecap="round" stroke-linejoin="round" stroke-width="2"/>
                <line id="Line_23-3" data-name="Line 23" x1="91.052" transform="translate(17.388 12.757)" fill="none" stroke="#fff" stroke-linecap="round" stroke-linejoin="round" stroke-width="2"/>
              </g>
            </g>
            <g id="Group_196" data-name="Group 196" transform="translate(13.203 128.209)">
              <g id="Group_193-4" data-name="Group 193" transform="translate(0 0)">
                <rect id="Rectangle_43-4" data-name="Rectangle 43" width="115.086" height="22.186" transform="translate(115.086 22.186) rotate(180)" fill="#0d2341"/>
                <circle id="Ellipse_24-4" data-name="Ellipse 24" cx="3.893" cy="3.893" r="3.893" transform="translate(4.379 6.197)" fill="#fff"/>
                <line id="Line_6-4" data-name="Line 6" x1="91.052" transform="translate(17.388 8.313)" fill="none" stroke="#fff" stroke-linecap="round" stroke-linejoin="round" stroke-width="2"/>
                <line id="Line_23-4" data-name="Line 23" x1="91.052" transform="translate(17.388 12.757)" fill="none" stroke="#fff" stroke-linecap="round" stroke-linejoin="round" stroke-width="2"/>
              </g>
            </g>
            <g id="Group_197" data-name="Group 197" transform="translate(13.203 166.234)">
              <g id="Group_193-5" data-name="Group 193" transform="translate(0 0)">
                <rect id="Rectangle_43-5" data-name="Rectangle 43" width="115.086" height="22.186" transform="translate(115.086 22.186) rotate(180)" fill="#0d2341"/>
                <circle id="Ellipse_24-5" data-name="Ellipse 24" cx="3.893" cy="3.893" r="3.893" transform="translate(4.379 6.197)" fill="#fff"/>
                <line id="Line_6-5" data-name="Line 6" x1="91.052" transform="translate(17.388 8.313)" fill="none" stroke="#fff" stroke-linecap="round" stroke-linejoin="round" stroke-width="2"/>
                <line id="Line_23-5" data-name="Line 23" x1="91.052" transform="translate(17.388 12.757)" fill="none" stroke="#fff" stroke-linecap="round" stroke-linejoin="round" stroke-width="2"/>
              </g>
            </g>
          </g>
        </g>
      </g>
    </g>
    <rect id="Rectangle_50" data-name="Rectangle 50" width="136.787" height="103.55" transform="translate(-52.34 141.714)" fill="#21426a"/>
    <rect id="Rectangle_51" data-name="Rectangle 51" width="61.428" height="103.55" transform="translate(-121.062 141.451)" fill="#21426a"/>
    <path id="Path_220" data-name="Path 220" d="M238.87,260.447c3.978-6.1,11.037-16.459,23.878-19.982,19.184-5.27,24.734-33.878,33.954-33.878,11.572,0,16.447,8.47,21.223,8.47,9.587,0,19.659-11.351,24.92-28.116" transform="translate(-276.659 -30.225)" fill="none" stroke="#30cdfc" stroke-linecap="round" stroke-linejoin="round" stroke-width="3"/>
    <g id="Group_204" data-name="Group 204">
      <rect id="Rectangle_52" data-name="Rectangle 52" width="43.382" height="2.29" transform="translate(-111.985 157.835)" fill="#fff"/>
      <rect id="Rectangle_53" data-name="Rectangle 53" width="43.382" height="2.29" transform="translate(-111.985 172.46)" fill="#fff"/>
      <rect id="Rectangle_54" data-name="Rectangle 54" width="43.382" height="2.29" transform="translate(-111.985 187.086)" fill="#fff"/>
      <rect id="Rectangle_55" data-name="Rectangle 55" width="43.382" height="2.29" transform="translate(-112.084 201.711)" fill="#fff"/>
      <rect id="Rectangle_56" data-name="Rectangle 56" width="43.382" height="2.29" transform="translate(-112.084 216.337)" fill="#fff"/>
      <rect id="Rectangle_57" data-name="Rectangle 57" width="43.382" height="2.29" transform="translate(-112.084 230.962)" fill="#fff"/>
    </g>
    <g id="undraw_agree_8pb9" transform="translate(-394.83 117.336)">
      <path id="Path_187" data-name="Path 187" d="M340.308,354.048h-1.157V196.976a74.165,74.165,0,0,1,27.4-57.677,72.606,72.606,0,0,1,60.673-15.04,61.434,61.434,0,0,1,36.766,22.317l-.906.72a60.308,60.308,0,0,0-36.092-21.9,71.45,71.45,0,0,0-59.709,14.8,73.011,73.011,0,0,0-26.971,56.78Z" transform="translate(-161.621 -122.782)" fill="#fff" stroke="#fff" stroke-width="2"/>
      <path id="Path_204" data-name="Path 204" d="M408.319,510.834C390.42,577,329.114,617.975,329.114,617.975s-32.287-66.3-14.389-132.46S393.93,378.374,393.93,378.374,426.218,444.67,408.319,510.834Z" transform="translate(-149.048 -257.172)" fill="url(#linear-gradient)"/>
      <path id="Path_205" data-name="Path 205" d="M195.052,510.834c17.9,66.164,79.205,107.141,79.205,107.141s32.287-66.3,14.389-132.46-79.205-107.141-79.205-107.141S177.154,444.67,195.052,510.834Z" transform="translate(-98.608 -257.172)" fill="url(#linear-gradient-2)"/>
      <path id="Path_206" data-name="Path 206" d="M155.028,545C204.142,592.807,210.141,666.3,210.141,666.3S136.51,662.283,87.4,614.472,32.283,493.166,32.283,493.166,105.914,497.186,155.028,545Z" transform="translate(-32.283 -305.554)" fill="#21426a"/>
      <path id="Path_207" data-name="Path 207" d="M394.83,545C345.716,592.807,339.717,666.3,339.717,666.3s73.631-4.02,122.745-51.831,55.113-121.306,55.113-121.306S443.944,497.186,394.83,545Z" transform="translate(-161.859 -305.554)" fill="#21426a"/>
    </g>
    <path id="Path_221" data-name="Path 221" d="M886.561,356.107a21.613,21.613,0,0,1,22.931-35.589,29.958,29.958,0,0,1,52.666,4.669,21.613,21.613,0,0,1,26.771,30.93Z" transform="translate(-778.88 -189.189)" fill="#fff"/>
    <line id="Line_22" data-name="Line 22" x1="0.119" y2="77.973" transform="translate(184.853 177.356)" fill="none" stroke="#fff" stroke-miterlimit="10" stroke-width="3"/>
    <path id="Path_225" data-name="Path 225" d="M539,368.63c8.978,0,17.191-5.363,25.974-11.88" transform="translate(-442.534 -179.599)" fill="none" stroke="#fff" stroke-linecap="round" stroke-linejoin="round" stroke-width="3"/>
    <rect id="Rectangle_65" data-name="Rectangle 65" width="17.228" height="17.228" transform="translate(124.447 156.223)" fill="#39f1a1" stroke="#0d2341" stroke-width="3"/>
    <circle id="Ellipse_39" data-name="Ellipse 39" cx="9.789" cy="9.789" r="9.789" transform="translate(175.135 154.234)" fill="#39f1a1" stroke="#0d2341" stroke-width="3"/>
    <circle id="Ellipse_41" data-name="Ellipse 41" cx="9.789" cy="9.789" r="9.789" transform="translate(175.135 259.221)" fill="#39f1a1" stroke="#0d2341" stroke-width="3"/>
    <circle id="Ellipse_42" data-name="Ellipse 42" cx="9.789" cy="9.789" r="9.789" transform="translate(-99.865 132.234)" fill="#39f1a1" stroke="#0d2341" stroke-width="3"/>
    <rect id="Rectangle_69" data-name="Rectangle 69" width="17.228" height="17.228" transform="translate(73.447 181.223)" fill="#39f1a1" stroke="#0d2341" stroke-width="3"/>
  </g>
</svg>
