<svg xmlns="http://www.w3.org/2000/svg" xmlns:xlink="http://www.w3.org/1999/xlink" width="520" height="510" viewBox="0 0 520 510">
  <defs>
    <radialGradient id="radial-gradient" cx="0.5" cy="0.469" r="0.28" gradientTransform="translate(0.018 -0.018) rotate(2.134)" gradientUnits="objectBoundingBox">
      <stop offset="0" stop-color="#0d2341"/>
      <stop offset="1" stop-color="#0d2341"/>
    </radialGradient>
    <linearGradient id="linear-gradient" x1="0.966" y1="0.065" x2="0.5" y2="1" gradientUnits="objectBoundingBox">
      <stop offset="0" stop-color="#3cfd86"/>
      <stop offset="1" stop-color="#30cdfc"/>
    </linearGradient>
  </defs>
  <g id="Group_20" data-name="Group 20" transform="translate(-4125.117 -1391.464)">
    <g id="Group_12" data-name="Group 12" transform="translate(4125.009 1390.75)">
      <g id="Rectangle_1" data-name="Rectangle 1" transform="translate(0.109 0.714)" stroke="#707070" stroke-width="1" fill="url(#radial-gradient)">
        <rect width="520" height="510" stroke="none"/>
        <rect x="0.5" y="0.5" width="519" height="509" fill="none"/>
      </g>
    </g>
    <g id="Group_21" data-name="Group 21" transform="translate(-4 -6)">
      <path id="iconmonstr-check-mark-18" d="M314.947,22.787l-105.1,127.069-41.352,50-89.76-83.508L96.046,95.606l70.089,65.22L295.591,5l19.356,17.787ZM17.309,95.606,107,179.254l-17.243,20.6L0,116.344Zm121.753,3.034L216.762,5,236.21,22.885l-77.7,94.03Z" transform="translate(4243.28 1545.203)" fill-rule="evenodd" fill="url(#linear-gradient)"/>
      <path id="iconmonstr-check-mark-18-2" data-name="iconmonstr-check-mark-18" d="M320.08,22.787l-86.931,105.1-18.167,21.965-41.352,50L83.87,116.344l17.309-20.738,70.089,65.22L300.724,5,320.08,22.787Z" transform="translate(4238.146 1545.203)" fill="#fff" stroke="#fff" stroke-width="4" fill-rule="evenodd"/>
      <g id="Ellipse_1" data-name="Ellipse 1" transform="translate(4179.117 1442.464)" fill="none" stroke="#fff" stroke-width="30">
        <circle cx="210.5" cy="210.5" r="210.5" stroke="none"/>
        <circle cx="210.5" cy="210.5" r="195.5" fill="none"/>
      </g>
    </g>
  </g>
</svg>
