<svg xmlns="http://www.w3.org/2000/svg" xmlns:xlink="http://www.w3.org/1999/xlink" width="71" height="71" viewBox="0 0 71 71">
  <defs>
    <linearGradient id="linear-gradient" x1="0.966" y1="0.065" x2="0.5" y2="1" gradientUnits="objectBoundingBox">
      <stop offset="0" stop-color="#3cfd86"/>
      <stop offset="1" stop-color="#30cdfc"/>
    </linearGradient>
  </defs>
  <g id="Group_20" data-name="Group 20" transform="translate(-4314.023 -2044.258)">
    <g id="Group_21" data-name="Group 21" transform="translate(4313.91 2044.258)">
      <path id="iconmonstr-check-mark-18" d="M53.1,8,35.38,29.422l-6.972,8.429L13.275,23.772l2.918-3.5,11.817,11L49.835,5,53.1,8ZM2.918,20.276l15.122,14.1-2.907,3.473L0,23.772Zm20.527.512L36.545,5l3.279,3.015-13.1,15.853Z" transform="translate(10.951 13.298)" fill-rule="evenodd" fill="url(#linear-gradient)"/>
      <path id="iconmonstr-check-mark-18-2" data-name="iconmonstr-check-mark-18" d="M123.694,8l-14.656,17.72-3.063,3.7L99,37.851,83.87,23.772l2.918-3.5,11.817,11L120.431,5l3.263,3Z" transform="translate(-59.644 13.298)" fill="#0d2341" fill-rule="evenodd"/>
      <g id="Ellipse_1" data-name="Ellipse 1" transform="translate(0.113)" fill="none" stroke="#0d2341" stroke-width="6">
        <circle cx="35.5" cy="35.5" r="35.5" stroke="none"/>
        <circle cx="35.5" cy="35.5" r="32.5" fill="none"/>
      </g>
    </g>
  </g>
</svg>
