<svg xmlns="http://www.w3.org/2000/svg" xmlns:xlink="http://www.w3.org/1999/xlink" width="1610" height="877" viewBox="0 0 1610 877">
  <defs>
    <radialGradient id="radial-gradient" cx="0.5" cy="0.469" r="0.28" gradientTransform="translate(0.018 -0.018) rotate(2.134)" gradientUnits="objectBoundingBox">
      <stop offset="0" stop-color="#3d2353"/>
      <stop offset="1" stop-color="#220f37"/>
    </radialGradient>
    <linearGradient id="linear-gradient" x1="0.966" y1="0.065" x2="0.5" y2="1" gradientUnits="objectBoundingBox">
      <stop offset="0" stop-color="#f49555"/>
      <stop offset="1" stop-color="#fc3093"/>
    </linearGradient>
  </defs>
  <g id="Group_18" data-name="Group 18" transform="translate(-4060 -1345)">
    <g id="Group_12" data-name="Group 12" transform="translate(4060 1345)">
      <g id="Rectangle_1" data-name="Rectangle 1" stroke="#707070" stroke-width="1" fill="url(#radial-gradient)">
        <rect width="1610" height="877" stroke="none"/>
        <rect x="0.5" y="0.5" width="1609" height="876" fill="none"/>
      </g>
    </g>
    <g id="Group_15" data-name="Group 15" transform="translate(4264 1658)">
      <path id="iconmonstr-check-mark-18" d="M314.947,22.787l-105.1,127.069-41.352,50-89.76-83.508L96.046,95.606l70.089,65.22L295.591,5l19.356,17.787ZM17.309,95.606,107,179.254l-17.243,20.6L0,116.344Zm121.753,3.034L216.762,5,236.21,22.885l-77.7,94.03Z" transform="translate(0 -5)" fill-rule="evenodd" fill="url(#linear-gradient)"/>
      <text id="erinode.io" transform="translate(243.148 200)" fill="#fff" font-size="205" font-family="Gilroy-ExtraBold, Gilroy" font-weight="800"><tspan x="0" y="0">erinode.io</tspan></text>
      <path id="iconmonstr-check-mark-18-2" data-name="iconmonstr-check-mark-18" d="M320.08,22.787l-86.931,105.1-18.167,21.965-41.352,50L83.87,116.344l17.309-20.738,70.089,65.22L300.724,5,320.08,22.787Z" transform="translate(-5.134 -5)" fill="#fff" stroke="#fff" stroke-width="4" fill-rule="evenodd"/>
    </g>
  </g>
</svg>
