<svg xmlns="http://www.w3.org/2000/svg" xmlns:xlink="http://www.w3.org/1999/xlink" width="1650" height="877" viewBox="0 0 1650 877">
  <defs>
    <radialGradient id="radial-gradient" cx="0.5" cy="0.469" r="0.28" gradientTransform="translate(0.018 -0.018) rotate(2.134)" gradientUnits="objectBoundingBox">
      <stop offset="0" stop-color="#3d2353"/>
      <stop offset="1" stop-color="#220f37"/>
    </radialGradient>
    <linearGradient id="linear-gradient" x1="0.966" y1="0.065" x2="0.5" y2="1" gradientUnits="objectBoundingBox">
      <stop offset="0" stop-color="#f49555"/>
      <stop offset="1" stop-color="#fc3093"/>
    </linearGradient>
  </defs>
  <g id="Group_17" data-name="Group 17" transform="translate(-4060 -1345)">
    <g id="Group_12" data-name="Group 12" transform="translate(4060 1345)">
      <g id="Rectangle_1" data-name="Rectangle 1" stroke="#707070" stroke-width="1" fill="url(#radial-gradient)">
        <rect width="1650" height="877" stroke="none"/>
        <rect x="0.5" y="0.5" width="1649" height="876" fill="none"/>
      </g>
    </g>
    <g id="Group_15" data-name="Group 15" transform="translate(4254 1636)">
      <path id="iconmonstr-check-mark-18" d="M357.389,26.745,238.128,182.085,191.2,243.205,89.347,141.117l19.641-25.352L188.523,195.5,335.424,5l21.965,21.745ZM19.641,115.765,121.423,218.024l-19.567,25.182L0,141.117Zm138.16,3.709L245.973,5l22.069,21.864L179.871,141.815Z" transform="translate(19 -5)" fill-rule="evenodd" fill="url(#linear-gradient)"/>
      <text id="erinode.io" transform="translate(283.554 239.353)" fill="#fff" font-size="205" font-family="Gilroy-ExtraBold, Gilroy" font-weight="800"><tspan x="0" y="0">erinode.io</tspan></text>
      <path id="iconmonstr-check-mark-18-2" data-name="iconmonstr-check-mark-18" d="M360.19,26.745,240.928,182.085,194,243.205,92.148,141.117l19.641-25.352L191.323,195.5,338.225,5,360.19,26.745ZM22.442,115.765l82.214,127.44Z" transform="translate(16.199 -5)" fill="#fff" fill-rule="evenodd"/>
    </g>
  </g>
</svg>
