<svg xmlns="http://www.w3.org/2000/svg" xmlns:xlink="http://www.w3.org/1999/xlink" width="1482" height="877" viewBox="0 0 1482 877">
  <defs>
    <radialGradient id="radial-gradient" cx="0.5" cy="0.469" r="0.28" gradientTransform="translate(0.018 -0.018) rotate(2.134)" gradientUnits="objectBoundingBox">
      <stop offset="0" stop-color="#3d2353"/>
      <stop offset="1" stop-color="#220f37"/>
    </radialGradient>
    <linearGradient id="linear-gradient" x1="0.5" x2="0.5" y2="1" gradientUnits="objectBoundingBox">
      <stop offset="0" stop-color="#f49954"/>
      <stop offset="1" stop-color="#fd2d95"/>
    </linearGradient>
  </defs>
  <g id="Group_14" data-name="Group 14" transform="translate(-2544 -2278)">
    <g id="Rectangle_1" data-name="Rectangle 1" transform="translate(2544 2278)" stroke="#707070" stroke-width="1" fill="url(#radial-gradient)">
      <rect width="1482" height="877" stroke="none"/>
      <rect x="0.5" y="0.5" width="1481" height="876" fill="none"/>
    </g>
    <text id="Verinode" transform="translate(2972.553 2787)" fill="#fff" font-size="205" font-family="Gilroy-ExtraBold, Gilroy" font-weight="800"><tspan x="0" y="0">Verinode</tspan></text>
    <path id="Path_72" data-name="Path 72" d="M278.975,228.2c-.023-.833-.093-1.661-.2-2.481a13.111,13.111,0,0,0-5.578-7.962,29.67,29.67,0,0,0-11.3-4.474c-9.005-1.775-17.653-3.306-26.02-4.6a436.306,436.306,0,0,0-67.6-5.56,436.31,436.31,0,0,0-67.6,5.56c-8.368,1.3-17.015,2.829-26.021,4.6a29.635,29.635,0,0,0-11.3,4.474,13.114,13.114,0,0,0-5.574,7.966c-.1.818-.174,1.643-.2,2.474q-.028.976.021,1.96c2.364,46.674,22.311,87.675,38.628,113.852,20.306,32.577,43.126,56.037,57.718,67.136a23.811,23.811,0,0,0,14.3,4.813h.047a23.817,23.817,0,0,0,14.317-4.819c14.584-11.093,37.4-34.553,57.709-67.13,16.317-26.177,36.263-67.178,38.628-113.851Q279,229.178,278.975,228.2Zm-48.389,43.544c-19.2,13.684-41.188,23.672-54.213,28.082a25.817,25.817,0,0,1-8.019,1.186h-.142a25.887,25.887,0,0,1-8.021-1.186c-13.026-4.41-35.011-14.4-54.213-28.082-25.517-18.183-33-33.195-34.6-42.964a16.9,16.9,0,0,1,5.92-2.122c67.173-13.244,114.789-13.244,181.958,0a16.949,16.949,0,0,1,5.924,2.125C263.584,238.557,256.1,253.566,230.585,271.746Z" transform="translate(2655.421 2398.414)" fill="url(#linear-gradient)"/>
  </g>
</svg>
