<svg xmlns="http://www.w3.org/2000/svg" width="103.05" height="103.05" viewBox="0 0 103.05 103.05">
  <g id="Business-Products_Business-Deals_business-deal-handshake-circle" data-name="Business-Products / Business-Deals / business-deal-handshake-circle" transform="translate(1.5 1.5)">
    <g id="Group_39" data-name="Group 39" transform="translate(0 0)">
      <g id="business-deal-handshake-circle">
        <path id="Shape_226" data-name="Shape 226" d="M671.247,319.5l-21.286,4.255" transform="translate(-591.207 -260.566)" fill="none" stroke="#00f79a" stroke-linecap="round" stroke-linejoin="round" stroke-width="3"/>
        <path id="Shape_227" data-name="Shape 227" d="M665.144,325.844l-10.049,4.247a6.315,6.315,0,0,1-4.989-.071,6.569,6.569,0,0,1-3.473-3.691,6.779,6.779,0,0,1,3.139-8.449l10.045-5.011a8.724,8.724,0,0,1,7.088-.418l20.628,8.129" transform="translate(-604.278 -286.798)" fill="none" stroke="#00f79a" stroke-linecap="round" stroke-linejoin="round" stroke-width="3"/>
        <path id="Shape_228" data-name="Shape 228" d="M641.2,337.3h7.115l13.558,10.343a3.69,3.69,0,0,0,5.114.4L685.927,332.4a3.744,3.744,0,0,0,.573-5.176l-10.436-11.6" transform="translate(-621.41 -273.936)" fill="none" stroke="#00f79a" stroke-linecap="round" stroke-linejoin="round" stroke-width="3"/>
        <path id="Shape_229" data-name="Shape 229" d="M665.836,315.29l-1.1-.889a7.951,7.951,0,0,0-7.67-.983l-15.875,6.763" transform="translate(-621.431 -283.496)" fill="none" stroke="#00f79a" stroke-linecap="round" stroke-linejoin="round" stroke-width="3"/>
        <path id="Shape_230" data-name="Shape 230" d="M637.388,347.1h11.828a5.079,5.079,0,0,0,5.336-4.767V318.516a5.071,5.071,0,0,0-5.336-4.762H637.388" transform="translate(-634.542 -280.404)" fill="none" stroke="#00f79a" stroke-linecap="round" stroke-linejoin="round" stroke-width="3"/>
        <path id="Shape_231" data-name="Shape 231" d="M671.912,347.1H660.084a5.076,5.076,0,0,1-5.336-4.767V318.516a5.066,5.066,0,0,1,5.336-4.762h11.828" transform="translate(-574.708 -280.404)" fill="none" stroke="#00f79a" stroke-linecap="round" stroke-linejoin="round" stroke-width="3"/>
        <path id="Oval_41" data-name="Oval 41" d="M686.773,406.3a50.025,50.025,0,1,0-50.025-50.025A50.026,50.026,0,0,0,686.773,406.3Z" transform="translate(-636.748 -306.248)" fill="none" stroke="#00f79a" stroke-linecap="round" stroke-linejoin="round" stroke-width="3"/>
      </g>
    </g>
  </g>
</svg>
