<svg xmlns="http://www.w3.org/2000/svg" width="33.945" height="26.948" viewBox="0 0 33.945 26.948">
  <path id="iconmonstr-medium-1" d="M4.025,8.5A1.313,1.313,0,0,0,3.6,7.389L.429,3.57V3H10.27l7.607,16.683L24.564,3h9.382v.57l-2.71,2.6a.794.794,0,0,0-.3.761V26.021a.793.793,0,0,0,.3.76l2.646,2.6v.57H20.569v-.57l2.742-2.662c.269-.269.269-.348.269-.76V10.526l-7.622,19.36h-1.03L6.054,10.526V23.5a1.791,1.791,0,0,0,.491,1.488l3.566,4.325v.571H0v-.571L3.566,24.99a1.724,1.724,0,0,0,.46-1.488V8.5Z" transform="translate(0 -3)" fill="#fff" fill-rule="evenodd"/>
</svg>
