<svg xmlns="http://www.w3.org/2000/svg" xmlns:xlink="http://www.w3.org/1999/xlink" width="319.309" height="54.834" viewBox="0 0 319.309 54.834">
  <defs>
    <linearGradient id="linear-gradient" x1="0.966" y1="0.065" x2="0.5" y2="1" gradientUnits="objectBoundingBox">
      <stop offset="0" stop-color="#3cfd86"/>
      <stop offset="1" stop-color="#30cdfc"/>
    </linearGradient>
  </defs>
  <g id="Group_15" data-name="Group 15" transform="translate(0 0)">
    <path id="iconmonstr-check-mark-18" d="M88.631,10.006,59.054,45.765,47.417,59.834l-25.26-23.5L27.029,30.5,46.753,48.852,83.183,5l5.447,5.006ZM4.871,30.5l25.241,23.54-4.853,5.8L0,36.334Zm34.263.854L61,5l5.473,5.033L44.607,36.494Z" transform="translate(0 -5)" fill-rule="evenodd" fill="url(#linear-gradient)"/>
    <path id="Path_244" data-name="Path 244" d="M10.206-10.26h19.17A15.7,15.7,0,0,0,29.7-13.5c0-8.154-5.832-14.256-13.716-14.256C7.452-27.756,1.62-21.546,1.62-13.5S7.344.756,16.578.756c5.13,0,9.126-1.89,11.772-5.562L21.87-8.532A7.05,7.05,0,0,1,16.686-6.48C13.716-6.48,11.232-7.452,10.206-10.26Zm-.162-6.048c.756-2.754,2.808-4.266,5.886-4.266a5.559,5.559,0,0,1,5.724,4.266ZM42.39-22.194V-27h-8.1V0h8.1V-12.2c0-5.346,4.752-6.7,8.1-6.156v-9.18C47.088-27.54,43.47-25.812,42.39-22.194Zm15.93-7.182a4.91,4.91,0,0,0,4.86-4.86,4.91,4.91,0,0,0-4.86-4.86,4.91,4.91,0,0,0-4.86,4.86A4.91,4.91,0,0,0,58.32-29.376ZM54.27,0h8.1V-27h-8.1ZM84.132-27.756c-3.564,0-6.264,1.3-7.722,3.294V-27h-8.1V0h8.1V-14.742c0-3.834,2.052-5.562,5.022-5.562,2.592,0,4.7,1.566,4.7,4.914V0h8.1V-16.578C94.23-23.868,89.586-27.756,84.132-27.756ZM112.752.756A14.152,14.152,0,0,0,127.062-13.5a14.152,14.152,0,0,0-14.31-14.256A14.152,14.152,0,0,0,98.442-13.5,14.152,14.152,0,0,0,112.752.756Zm0-7.884a6.056,6.056,0,0,1-6.21-6.372,6.056,6.056,0,0,1,6.21-6.372,6.056,6.056,0,0,1,6.21,6.372A6.056,6.056,0,0,1,112.752-7.128Zm38.5-30.672v13.338a10.142,10.142,0,0,0-8.046-3.294c-7.074,0-12.906,6.21-12.906,14.256S136.134.756,143.208.756a10.142,10.142,0,0,0,8.046-3.294V0h8.1V-37.8ZM144.828-6.912c-3.726,0-6.426-2.538-6.426-6.588s2.7-6.588,6.426-6.588,6.426,2.538,6.426,6.588S148.554-6.912,144.828-6.912Zm27.7-3.348H191.7a15.7,15.7,0,0,0,.324-3.24c0-8.154-5.832-14.256-13.716-14.256-8.532,0-14.364,6.21-14.364,14.256S169.668.756,178.9.756c5.13,0,9.126-1.89,11.772-5.562l-6.48-3.726A7.05,7.05,0,0,1,179.01-6.48C176.04-6.48,173.556-7.452,172.53-10.26Zm-.162-6.048c.756-2.754,2.808-4.266,5.886-4.266a5.559,5.559,0,0,1,5.724,4.266ZM199.044.756a5.163,5.163,0,0,0,5.13-5.13,5.163,5.163,0,0,0-5.13-5.13,5.163,5.163,0,0,0-5.13,5.13A5.163,5.163,0,0,0,199.044.756Zm14.58-30.132a4.91,4.91,0,0,0,4.86-4.86,4.91,4.91,0,0,0-4.86-4.86,4.91,4.91,0,0,0-4.86,4.86A4.91,4.91,0,0,0,213.624-29.376ZM209.574,0h8.1V-27h-8.1Zm27,.756A14.152,14.152,0,0,0,250.884-13.5a14.152,14.152,0,0,0-14.31-14.256A14.152,14.152,0,0,0,222.264-13.5,14.152,14.152,0,0,0,236.574.756Zm0-7.884a6.056,6.056,0,0,1-6.21-6.372,6.056,6.056,0,0,1,6.21-6.372,6.056,6.056,0,0,1,6.21,6.372A6.056,6.056,0,0,1,236.574-7.128Z" transform="translate(68.425 52.281)" fill="#fff"/>
    <path id="iconmonstr-check-mark-18-2" data-name="iconmonstr-check-mark-18" d="M150.343,10.006,125.879,39.583l-5.112,6.181L109.13,59.834l-25.26-23.5L88.741,30.5l19.724,18.354L144.9,5l5.447,5.006Z" transform="translate(-61.713 -5)" fill="#fff" fill-rule="evenodd"/>
  </g>
</svg>
