<svg xmlns="http://www.w3.org/2000/svg" xmlns:xlink="http://www.w3.org/1999/xlink" width="268.196" height="538.965" viewBox="0 0 268.196 538.965">
  <defs>
    <linearGradient id="linear-gradient" y1="-0.347" x2="1" y2="-0.347" gradientUnits="objectBoundingBox">
      <stop offset="0" stop-color="#5aceed"/>
      <stop offset="1" stop-color="#4f68ca"/>
    </linearGradient>
    <linearGradient id="linear-gradient-2" y1="0.5" x2="1" y2="0.5" gradientUnits="objectBoundingBox">
      <stop offset="0" stop-color="#f87b58"/>
      <stop offset="0.63" stop-color="#f89453"/>
      <stop offset="0.81" stop-color="#f8c548"/>
      <stop offset="0.94" stop-color="#f89952"/>
      <stop offset="1" stop-color="#f89c51"/>
    </linearGradient>
    <linearGradient id="linear-gradient-3" y1="1.479" x2="1" y2="1.479" gradientUnits="objectBoundingBox">
      <stop offset="0" stop-color="#e1a1ed"/>
      <stop offset="1" stop-color="#7658f4"/>
    </linearGradient>
    <linearGradient id="linear-gradient-4" y1="8.259" x2="1" y2="8.259" gradientUnits="objectBoundingBox">
      <stop offset="0" stop-color="#5bd3ef"/>
      <stop offset="1" stop-color="#4b44be"/>
    </linearGradient>
    <clipPath id="clip-path">
      <rect id="Rectangle_24" data-name="Rectangle 24" width="46.7" height="234.9" transform="translate(142.2 303.6)"/>
    </clipPath>
    <clipPath id="clip-path-2">
      <rect id="Rectangle_25" data-name="Rectangle 25" width="127.7" height="55.5" transform="matrix(0.11, -0.994, 0.994, 0.11, 188.556, 272.575)"/>
    </clipPath>
  </defs>
  <g id="man_with_a_hand_up" data-name="man with a hand up" transform="translate(-12.033 0.011)">
    <path id="Path_101" data-name="Path 101" d="M213.9,523a87.223,87.223,0,0,0-1.8-14.4l-19,.4s-.6,10.4-9.2,12.1l-3.6,1.1c-4.5.9-9.9,2.5-13,4.6a16.949,16.949,0,0,1-.1-2.2,61.74,61.74,0,0,0-2.9-15.3l-21.3.8s1.1,10-7.5,11.7l-3.7,1c-8.1,1.6-18.8,5.3-14.3,10.9,3.5,4.2,39.8,6.1,46.3,4.9,2.5-.4,3.4-2.2,3.7-4.5,7.7,3.4,38.1,4.2,44,2.9C216.2,535.9,214.1,528.5,213.9,523Z" fill="#4b44be"/>
    <path id="Path_102" data-name="Path 102" d="M124.3,372.4c-.9,7.4,4.8,45.9,4.8,53.2s13.7,85.8,13.7,85.8l21.7-1s-4.3-115.5-3.9-121.1,24.2-72.7,24.2-72.7,1.7,17.7,1.7,23.4,6.6,169,6.6,169H212l26.9-240.6-.5-4.6L139.1,250c.1-.1-13.9,115.1-14.8,122.4" fill="url(#linear-gradient)"/>
    <path id="Path_103" data-name="Path 103" d="M258.1,218l-19.6,53.2-3.4,26,16.5-14.5c.9-.8,2.7-4.9,3.7-7l9.9-27.7,7.3-44.2s-11.1-20-24.1-43.5Zm-9.7-57.7-.8-4.7-2-.4,2.8,5.1M181.9,26.2a36.212,36.212,0,0,0-9.3.2c-.9.2-3.8,6.1-5.8,10.3-2.6,5.4-3.1,14-3.1,19.5,0,6.9,6.9,14.7,15.5,20.2,3.8,2.4,1.4,15.1-.5,16.3s-38.4,28.2-38.4,28.2L114,106.5,42.4,45.1l-3.6-4.5s-8-34.1-11-35.5c-5.2-2.4-9,6.3-13.8,13.5-2.7,4.1-2.7,16.2.5,19.9L28.4,55.4,105,118.3l21.3,6.8,24.2,13.2,95,17c-16.9-30.6-35.9-64.9-37.6-68.5a13.067,13.067,0,0,1-1-9.3,63.971,63.971,0,0,1,5-12.5c1.5-2.1,2.3-6.1,2.7-8.4s.4-1.6-1.6.4c-.6.5-2.3.6-3.1-2.9s-11.3-8.5-16.4-12.9c0,0-5.4-1.4-10.9-3.3" fill="url(#linear-gradient-2)"/>
    <path id="Path_104" data-name="Path 104" d="M148.3,95.4c-6.1.6-9.7-.5-16.9-2.1-5.8-1.4-16.5-3.7-20.2-5.2C95.3,81.8,41.3,44,39.1,40.4c-1.2-2-10.6,9.4-11.2,14.5-.1,1.4,16.2,19,23,26.7C52.1,83,62.3,93.7,66,96.5c8.2,6.2,28.1,18.8,33.6,22.3,4.2,2.7,17.6,9.7,32.8,14.3,10.2,3.1,12.9,5.6,16.1,12.6,3.4,7.5-11.5,94-11.5,94s-.4,15.8,2.7,17.4c2.7,1.4,34.6,10.7,42.3,13.6a158.55,158.55,0,0,0,16.9,1.7l40.2-5.6s-.6-76.1.1-88.8c.7-12.5-.9-19.4,1.3-16,2.5,3.8,13,38,13,43.8S242,262.1,242,262.1l15.4,8.5s20.8-55.5,22-62.9,1.5-11.2-1.9-18.5-22.4-73.7-22.4-73.7-1.9-8.1-15.8-12.3-27.4-15.7-43-6.7c-16.1,9.2-22.7-.3-22.7-.3s-15.9.8-24.8-.6" fill="url(#linear-gradient-3)"/>
    <path id="Path_105" data-name="Path 105" d="M210.6,10.2c1.8,1.4,7.2,6.4,9.1,7.9,2.2,1.7,3.4,4.1,5.3,7.2,1,1.6,2.5,6.1,3.2,7.9,4,10.2.1,14.6-3,21.9-4.3,10-14,11.5-14.8,12.9-7.7-2.5-8.6-1.6-12-.5-4.3-2.9-6.2-6.8-8.5-8.8,1.4-2-2.8-20.5-5.9-10.8-1.3-4.4-5.3-13.6-7-14.8s-3.7-2.7-3.5-3.4c.9-4.1-5.9-3.5.1-7.8,4.8-3.5,6.7-11.6,13-12.2,3.9-.4,8.9-.8,12.9-1.4,2.8-.4,5.1.9,7.5,1.2a9.029,9.029,0,0,1,3.6,1.2" fill="url(#linear-gradient-4)"/>
    <g id="Group_136" data-name="Group 136" opacity="0.07">
      <g id="Group_135" data-name="Group 135">
        <g id="Group_134" data-name="Group 134">
          <g id="Group_133" data-name="Group 133">
            <g id="Group_132" data-name="Group 132" clip-path="url(#clip-path)">
              <path id="Path_106" data-name="Path 106" d="M188.2,304.6c-2.7,7.8-13.1,23.1-19.8,32.1s-27.8,28.4-26.5,51.9,15.6,83.9,15.6,89.4-5.3,31.1-9.3,39-3.3,16.1-1.3,16.1c.9,0,4.2,1.2,8.8,0,3.5-.9,8.1,2.8,10,1.9,1.4-.6,1.7-5.1,1.7-5.1a15.149,15.149,0,0,0-.7-5.6,55.1,55.1,0,0,1-2.2-8.9c-.8-22.1-2.7-73.3-2.3-76.9.7-6.7-4.6-40.5.2-57.1s25.7-76.8,25.8-76.8"/>
            </g>
          </g>
        </g>
      </g>
    </g>
    <g id="Group_141" data-name="Group 141" opacity="0.07">
      <g id="Group_140" data-name="Group 140">
        <g id="Group_139" data-name="Group 139">
          <g id="Group_138" data-name="Group 138">
            <g id="Group_137" data-name="Group 137" clip-path="url(#clip-path-2)">
              <path id="Path_107" data-name="Path 107" d="M238.6,169.2l-.2,78.4s2,16.6-.8,18.4-13.9,3.2-17.3,3.2c-2.3,0-33.3,3.6-22.3-1.9,4.9-2.5,35.9-19.8,26-36.9s-5.3-38.9,1.9-53.7S238.7,152,238.7,152Z"/>
            </g>
          </g>
        </g>
      </g>
    </g>
    <path id="Path_108" data-name="Path 108" d="M39.2,40.5,28.9,48a1.552,1.552,0,0,1-2.1-.3,1.135,1.135,0,0,1-.3-.8l-1.1-15,2.7-4.7a3.281,3.281,0,0,0,.4-1.9l-.8-7.4a2.353,2.353,0,0,0-.2-.8L23.8,2.9a1.456,1.456,0,0,1,1.3-1.6L36.3,0A1.553,1.553,0,0,1,38,1.3v.1l1.9,37.8A1.357,1.357,0,0,1,39.2,40.5Z" fill="#fafafa"/>
    <path id="Path_109" data-name="Path 109" d="M179,74.8s7.3-1.4,10.9-4.2-4.5,5.3-7.1,8.5S179,74.8,179,74.8Z" opacity="0.07"/>
    <path id="Path_110" data-name="Path 110" d="M226.2,297.4s-7.2,29.2-13.7,37.8c-6.9,9.2.7,51.5-5.7,70.1-6.1,17.6,2.2,55.8.7,68-1.2,10-1.4,31.5-6.7,43.5-1.8,4.1-5.6,7.1-5.6,9,0,10.7,14.5,3.8,14.5,3.8l.8-9.5,9.9-84,18.3-166.7Z" opacity="0.07"/>
  </g>
</svg>
