<svg xmlns="http://www.w3.org/2000/svg" xmlns:xlink="http://www.w3.org/1999/xlink" width="196.375" height="666.33" viewBox="0 0 196.375 666.33">
  <defs>
    <linearGradient id="linear-gradient" y1="0.5" x2="0.999" y2="0.5" gradientUnits="objectBoundingBox">
      <stop offset="0" stop-color="#4f68ca"/>
      <stop offset="1" stop-color="#5aceed"/>
    </linearGradient>
    <linearGradient id="linear-gradient-2" y1="0.5" x2="1" y2="0.5" gradientUnits="objectBoundingBox">
      <stop offset="0" stop-color="#f87b58"/>
      <stop offset="0.41" stop-color="#f89453"/>
      <stop offset="0.71" stop-color="#f8c548"/>
      <stop offset="1" stop-color="#f89c51"/>
    </linearGradient>
    <linearGradient id="linear-gradient-3" y1="0.501" x2="1" y2="0.501" gradientUnits="objectBoundingBox">
      <stop offset="0" stop-color="#e1a1ed"/>
      <stop offset="1" stop-color="#7658f4"/>
    </linearGradient>
    <linearGradient id="linear-gradient-4" x1="-0.001" y1="0.5" x2="0.999" y2="0.5" gradientUnits="objectBoundingBox">
      <stop offset="0" stop-color="#5aceed"/>
      <stop offset="0.55" stop-color="#4f68ca"/>
      <stop offset="1" stop-color="#5282d3"/>
    </linearGradient>
    <clipPath id="clip-path">
      <rect id="Rectangle_26" data-name="Rectangle 26" width="20.8" height="34.1" transform="translate(149.3 77.7)"/>
    </clipPath>
    <clipPath id="clip-path-2">
      <rect id="Rectangle_27" data-name="Rectangle 27" width="58" height="100.7" transform="translate(159.1 140.7)"/>
    </clipPath>
    <clipPath id="clip-path-3">
      <rect id="Rectangle_28" data-name="Rectangle 28" width="47.3" height="359.9" transform="translate(73.5 295.5)"/>
    </clipPath>
  </defs>
  <g id="man_with_ipad" data-name="man with ipad" transform="translate(-39.562 0.299)">
    <g id="Group_142" data-name="Group 142">
      <path id="Path_111" data-name="Path 111" d="M132.3,611l-3.6-.1-18.7.2s-4.1,19.2-6.3,27.2c-.1.5-.6,1.8-.8,2.8a19.923,19.923,0,0,0-.4,4.2c.4,7.3,3.1,13.4,9.6,16.7,7.1,3.6,12.6,6.9,20.2,0s8.6-11.3,5.7-23.3S134.1,611.4,132.3,611Z" fill="#4b44be"/>
      <path id="Path_112" data-name="Path 112" d="M210.6,634.9h0c-12.9-4.1-21.5-21.6-21.5-21.6l-22-1.3s-1.2,17.8-1.8,26.8c-.8,12,1.2,17.3,9.1,16.7,10.4-.8,52.7,3,59.4-1.3C242.5,648.6,222.6,638.7,210.6,634.9Z" fill="#4b44be"/>
    </g>
    <path id="Path_113" data-name="Path 113" d="M78.5,295v26.3l31.8,290h22.5s7.8-198.9,7.8-205.8,2-28.5,2-28.5,28.3,81.7,28.8,88.5S166.8,613,166.8,613l22.5.9S209,518.7,209,509.7s6.7-55.8,5.7-64.8S197,295.7,197,295.7l-34.5-.9Z" fill="url(#linear-gradient)"/>
    <path id="Path_114" data-name="Path 114" d="M224.4,264.5l-.3-.4c.1.3.2.5.3.4M158.3,239l-12.6,5.2-.7,17.4,13.9,5.5c0-.1,15.2-.6,15.2-.7.1-.7,6-.5,8.7,1.2l47.1-16.2,1.7-11.3s3.5,14.2-12.3-14.4Zm56.3-57.4-1-5.7-2.4-.4,3.4,6.1M127.5,30.1c-5.8,2.4-8.6,10.9-8.6,10.9s-2.8-1.7-2.8,3.1,2.4,15.6,4.1,18.4A137.347,137.347,0,0,1,128.3,77c2.3,5,1.5,15.2-.9,16.7s-45.2,39.9-45.2,39.9L46.9,242v4.3l5.4,1.9,5.6,4.8c.5.1,7.6,4,8.6,4.7A79.426,79.426,0,0,0,84.2,264c4,.8,21.7.4,21.7.4l17.9-.4-3.1-22.8-26.5-.3L58,239.1l36.7-84.4,115.8,20.7c-20.6-37.2-43.7-79-45.7-83.4-1.7-3.6.1-12.2,1.1-16.7.9-4.1,2.9-9.1,4.8-10.6s5.3-8.1,5.3-11,.8-14.2-1.6-11.8c-.7.7-3.5-3.6-4.5-7.9-1.6-6.2-5.9-10.6-10.9-14.6,0,0-25.5,8.4-31.2,10.8" fill="url(#linear-gradient-2)"/>
    <path id="Path_115" data-name="Path 115" d="M83.2,110.3c-5.6,3.8-10.8,8.9-12.7,15.5s-15.4,58-17.2,64.5c-4.4,15.9-7,20.5-12.2,39.2-6.4,23,8.3,26.5,23.3,29.9,15.6,3.5,15.7,5,19.4,5,.6,0,19.1,3.8,19.7-6.7.4-6.6-.8-17.1-3.3-16.8-5.7.8-24.1-4.1-25-4.7-1.2-.8,4-15.2,7-24.1,2.2-6.6,10.7-34,12.6-39.1,1-2.8-4.8,26.6-8.3,55.4-.1,1.1-1.5,12.3-1.1,12.3,4.2,0,15.7.2,19.3.6,16.2,1.9,19.3,9.6,18.3,15.8-1.8,10.8-41.2,5.8-41,7.2,0,0-6.8,30.6-3,32.5,3.3,1.7,47.5,20.1,56.9,23.7a2,2,0,0,0,2.6-1.2v-.1l6-17.2a.365.365,0,0,1,.5-.2.215.215,0,0,1,.2.2l5.7,18.8a1.673,1.673,0,0,0,.9,1.1h2.5l49.1-10.6s-.2-19.4-.3-44.2c0-2.5-.4-11.7-2.2-10s-42.8,7.1-47.3,5.2c-9.5-4-7-13.9-3.7-18,3.8-4.7,52.2-7,52.4-10.5.8-15.2-.4-55.1-1.2-50.3-1.2,7.5-29.5,48.5-29.5,55.6s-.5,25.1-.5,25.1l46.5-3.6s15.6-5.4,17-14.4-.3-13-.9-26.4c-.4-8.5-12.4-59.6-15.8-74.1a50.13,50.13,0,0,1-1-6.6c-.4-6-2.8-20-15.7-26.1-16-7.6-28.5-13.6-31.7-13.6-3,0-11.2,18-15.5,23.1-1.9,2.3-1.5,3.4-4,6.8a3.974,3.974,0,0,1-5.5.9,5.241,5.241,0,0,1-1-1.1,50.694,50.694,0,0,1-3.7-6.4c-1.9-3.8-16.6-25.5-16.6-25.5s-34.4,9.2-40,13.1" fill="url(#linear-gradient-3)"/>
    <path id="Path_116" data-name="Path 116" d="M158.9,19.5s-31.4,11.7-33.6,13.4-6.4,8.1-6.4,8.1-2.2-1.2-2.7,2.1c0,0-3.2-6.6-3.6-10.3s0-13.2,6-19.5S136.7-1.3,144.2-.2s10.7,2,15.4,6.7a30.693,30.693,0,0,0,10.1,6.8,16.291,16.291,0,0,1,7.7,11.9c.9,7.3-1.6,21.9-1.6,21.9s.7-5.7-1.6-3.9c-1.6,1.2-3.9-4-4.6-7.1C168.7,33.1,160.6,20.3,158.9,19.5Z" fill="url(#linear-gradient-4)"/>
    <g id="Group_145" data-name="Group 145" opacity="0.07">
      <g id="Group_144" data-name="Group 144">
        <g id="Group_143" data-name="Group 143" clip-path="url(#clip-path)">
          <path id="Path_117" data-name="Path 117" d="M169.4,99.5c-.2-.6,3.4,2.1-.8-.9-5.9-4.3-3.1-21.9-3.1-21.9a19.755,19.755,0,0,1-10.7,10c-7.5,2.8-9.8.7,1.8,7.4,11.4,6.6,5.5,8.9,4.7,17.6"/>
        </g>
      </g>
    </g>
    <g id="Group_152" data-name="Group 152">
      <g id="Group_148" data-name="Group 148" opacity="0.07">
        <g id="Group_147" data-name="Group 147">
          <g id="Group_146" data-name="Group 146" clip-path="url(#clip-path-2)">
            <path id="Path_118" data-name="Path 118" d="M192.4,161.7,208,220.8s-.1,10.5-3.2,12.1-12.9,2.6-15.2,3.6-26.2,6-20-2.4c1.4-1.9,33.8-13.2,19.3-25.1S177,180.6,184,169.2s5.5-21.1,5.5-21.1Z"/>
          </g>
        </g>
      </g>
      <g id="Group_151" data-name="Group 151" opacity="0.07">
        <g id="Group_150" data-name="Group 150">
          <g id="Group_149" data-name="Group 149" clip-path="url(#clip-path-3)">
            <path id="Path_119" data-name="Path 119" d="M126.3,317.5s-13.5,71.6-6.5,100.2c10.6,43.4-4.7,102.1-4.7,130.3,0,18.3,7.2,68.9,7.7,89.5.1,6.2,4.6,18.2,1.3,21-1.4,1.2-10-1.6-14.7-3.8a6.333,6.333,0,0,1-3.6-6.4l2.8-12.2,4-16.2-28-262s-9-58.3-3.9-58.5,45.7,18.1,45.6,18.1"/>
          </g>
        </g>
      </g>
      <path id="Path_120" data-name="Path 120" d="M113.5,221.2l52.9,6.6a2.314,2.314,0,0,1,1.7,2.5l-1.5,47.8c-.1,1.5-1,3.5-2.4,3.1l-52.6-10.1a2.37,2.37,0,0,1-1.7-2.3l-.2-5.2,5.8-1.5a12.267,12.267,0,0,0,4.1-2.1,2.336,2.336,0,0,0,.7-.7l1.2-1.8a2.466,2.466,0,0,0,.4-1.9c-.2-1.1-.5-2.6-.7-3.4a6.888,6.888,0,0,0-.3-.8l-1.3-2.8a5.849,5.849,0,0,0-2.9-2.9l-.8-.4-5.7-3.1.5-18.7a2.348,2.348,0,0,1,2.4-2.3Z" fill="#fff"/>
    </g>
  </g>
</svg>
