<svg xmlns="http://www.w3.org/2000/svg" xmlns:xlink="http://www.w3.org/1999/xlink" width="357.757" height="591.278" viewBox="0 0 357.757 591.278">
  <defs>
    <linearGradient id="linear-gradient" x1="1.529" y1="1.795" x2="2.529" y2="1.795" gradientUnits="objectBoundingBox">
      <stop offset="0" stop-color="#4f68ca"/>
      <stop offset="1" stop-color="#5aceed"/>
    </linearGradient>
    <linearGradient id="linear-gradient-2" y1="16.422" x2="1.001" y2="16.422" gradientUnits="objectBoundingBox">
      <stop offset="0" stop-color="#f87b58"/>
      <stop offset="0.41" stop-color="#f89453"/>
      <stop offset="0.94" stop-color="#f8c548"/>
    </linearGradient>
    <linearGradient id="linear-gradient-3" x1="0" y1="17.772" x2="1.001" y2="17.772" xlink:href="#linear-gradient-2"/>
    <linearGradient id="linear-gradient-4" x1="0" y1="6.579" x2="1.001" y2="6.579" xlink:href="#linear-gradient-2"/>
    <linearGradient id="linear-gradient-5" y1="-0.488" x2="1" y2="-0.488" gradientUnits="objectBoundingBox">
      <stop offset="0" stop-color="#e1a1ed"/>
      <stop offset="1" stop-color="#7658f4"/>
    </linearGradient>
    <linearGradient id="linear-gradient-6" x1="12.33" y1="20.398" x2="13.245" y2="19.993" gradientUnits="objectBoundingBox">
      <stop offset="0" stop-color="#4b44be"/>
      <stop offset="1" stop-color="#5bd3ef"/>
    </linearGradient>
  </defs>
  <g id="man_with_paper" data-name="man with paper" transform="translate(-0.156 -0.048)">
    <path id="Path_135" data-name="Path 135" d="M175.5,50.7l172,23.5a11.969,11.969,0,0,1,10.3,13.5h0l-25.4,186A11.969,11.969,0,0,1,318.9,284h0l-172-23.5A11.969,11.969,0,0,1,136.6,247h0L162,61a12.041,12.041,0,0,1,13.5-10.3Z" fill="#fff"/>
    <circle id="Ellipse_15" data-name="Ellipse 15" transform="translate(254.4 199.3)" fill="none" stroke="#c1272d" stroke-miterlimit="10" stroke-width="1"/>
    <g id="Group_164" data-name="Group 164">
      <path id="Path_136" data-name="Path 136" d="M94,558.7c-5.1,1-22.9-4.5-25.9-7.3-1-.9-1.8-3.5-2.6-4.6-.7-3.5-2.4-1.7-4.1-2-5.1-1.1-18.9-4.7-25.4-1.2-1.2,2.7-1.3,5.3-2.1,6.8a145.676,145.676,0,0,0-3.5,20.8,7.763,7.763,0,0,0,6.8,8.6h.2a21.958,21.958,0,0,0,4.4-.2c11-2.7,33.3-3.4,41.9-6.8C98.1,569,106.3,561.4,94,558.7Z" fill="#4b44be"/>
      <path id="Path_137" data-name="Path 137" d="M265.1,566.8c-5,1.3-23.2-3.1-26.3-5.7-1.1-.8-2-3.3-2.9-4.4-.9-3.4-2.5-1.6-4.2-1.8-5.2-.8-19.2-3.6-25.5.3-1.1,2.7-.9,5.4-1.6,6.9a148.066,148.066,0,0,0-2.2,21,7.883,7.883,0,0,0,7.4,8.2h.2a15.682,15.682,0,0,0,4.3-.4c10.8-3.4,33-5.4,41.4-9.4C269.8,576.8,277.6,568.7,265.1,566.8Z" fill="#4b44be"/>
    </g>
    <path id="Path_138" data-name="Path 138" d="M35.4,543.8c8.7,1.2,29.6,1.5,29.6,1.5s1.3-10.2,7.7-29.8c6.5-19.9,39.2-82.3,39.2-82.3,6.7-10.2,13.7-31.3,13.7-31.3l9.8-80.8s51.7,80.7,51,99S198.5,510,198.5,510c1.3,10.7,7.7,46.1,7.7,46.1a156.013,156.013,0,0,1,29-.8c-1.3-14.7-6.6-75-6.6-75s-3.3-46.8-4-75.3-21-88.6-34.7-116.1a118.584,118.584,0,0,1-4.5-14.3L64.5,289.9A174.019,174.019,0,0,1,71,313.4c7.1,35.7,12.1,95.7,12.1,95.7-18.9,21.4-30.8,61.7-30.8,61.7C44.6,495,35.4,543.8,35.4,543.8Z" fill="url(#linear-gradient)"/>
    <g id="Group_165" data-name="Group 165">
      <path id="Path_139" data-name="Path 139" d="M169.8,48.6c-18.6-3.5-37.7,3.1-37.7,3.1l-3.2,1L109.1,78.1l18.3-4.9c4.9-1.7,14.5-4.3,18.9-4,3.3-.2,11.1,1.4,14.8-1.6,2.8-1.3,3.3-3.6,9-9.2,4.1-4.5,2.9-5.8,4.5-6.4C176.7,51.1,174.9,49,169.8,48.6Z" fill="url(#linear-gradient-2)"/>
      <path id="Path_140" data-name="Path 140" d="M235.5,274.2c-.2-1-3.8-.4-4.4-1.3-3.9-5.5-8.5-12.5-18.3-15.8a42.456,42.456,0,0,0-8.6-1.8l-6.6,11.5a27.666,27.666,0,0,0,3.1,5.6c4,5.4,12.4,12.7,27.8,10.7C232.1,282.7,236,277.9,235.5,274.2Z" fill="url(#linear-gradient-3)"/>
      <path id="Path_141" data-name="Path 141" d="M98,18.5c-2.2,0-48.6,35.8-49,39.8-.1,2.1-.2,11.2-1.8,17.2-1.5,5.6-6,13.6-6,13.6s4,7.5,14.4,9c10,1.4,23.4-1.9,23.4-1.9s-3.1-19.8.7-22c3.3-1.9,4.3.1,15.7-9.5s7.7-33.8,7.4-35.4S100.2,18.5,98,18.5Z" fill="url(#linear-gradient-4)"/>
    </g>
    <path id="Path_142" data-name="Path 142" d="M151,186c-15.1-13.7-24.7-56.4-29.5-67.1S109,105.2,106,104c-1.5-.6-9.8-2.9-16-4.7L135,71c6.1-11.5-5.9-18.4-5.9-18.4L77.9,78V95.3L61.3,92.6,41.5,88.7A129.379,129.379,0,0,0,23,85.8a18.415,18.415,0,0,0-7.7,1l-1.3.5a12.751,12.751,0,0,0-7.2,6.3A77.818,77.818,0,0,0,.4,115.7C-1.5,128,8,155.9,17.7,176.2c4.2,8.6,20.6,52.8,24.7,63.9,20,46.4,21.4,50,21.4,50,61.4-.6,121.2-14.3,121.2-14.3,2.8-5.1-7.3-19.9-7.3-19.9l18.6,15.4c8.1,2.6,14.8-15.5,14.8-15.5S163.7,197.5,151,186Z" fill="url(#linear-gradient-5)"/>
    <path id="Path_143" data-name="Path 143" d="M40.3,20.6a60.731,60.731,0,0,1,4.5-7.4,89.369,89.369,0,0,1,7.1-6.6c2.3-1.4,8-4.3,10.2-5.5,7.8-2.4,18.2,0,25.8.4,6.9-.5,12,8.1,14.7,13.8s-2.5,5-2,9.4c.1.8-2.2,2-4.2,3.1S88.7,38,86.7,42.3c-2.1-10.5-9.1,8.2-7.8,10.5-2.8,1.8-6.2,9.4-11.2,11.8-3.5-1.5-10-7.3-18.7-5.7-.6-1.6-9.2-8-10.1-18.8C38.2,36.9,37.5,25.4,40.3,20.6Z" fill="url(#linear-gradient-6)"/>
    <path id="Path_144" data-name="Path 144" d="M66.8,67.8s7.8,7,12.5,6.8l-1.2,5.9.3,8.5s-3-4.8-6.8-9.7A27.929,27.929,0,0,1,66.8,67.8Z" opacity="0.07"/>
    <path id="Path_145" data-name="Path 145" d="M95.1,153.7s9.8,29.5,40,60.2S172.6,251,172.6,251s6.2,7.8,4.2,13-15.2-12.2-44.8-25.7c-16.9-7.7-22.7-21-30.5-39.6-9.8-23.5-12-28.5-13.3-36.9C84.9,139.8,95.1,153.7,95.1,153.7Z" opacity="0.07"/>
    <path id="Path_146" data-name="Path 146" d="M135.3,321s-14.3,30.9-18.4,46c-4.2,15.6-4.2,38.3-16.8,49.3-14.3,12.5-31.1,54.5-35,63.4-5.5,12.7-16.8,82.7-13.5,87.6,3.2,4.8,16.1-2.4,16.1-2.4S63,547.1,67,531s22.8-59.1,34.6-80.4c10.7-19.1,21.6-41.2,24-54S135.3,321,135.3,321Z" opacity="0.07"/>
  </g>
</svg>
