<svg xmlns="http://www.w3.org/2000/svg" xmlns:xlink="http://www.w3.org/1999/xlink" width="116.262" height="348.761" viewBox="0 0 116.262 348.761">
  <defs>
    <linearGradient id="linear-gradient" x1="7.907" y1="7.533" x2="8.907" y2="7.533" gradientUnits="objectBoundingBox">
      <stop offset="0" stop-color="#4f68ca"/>
      <stop offset="1" stop-color="#5aceed"/>
    </linearGradient>
    <linearGradient id="linear-gradient-2" x1="5.627" y1="7.315" x2="6.627" y2="7.315" gradientUnits="objectBoundingBox">
      <stop offset="0" stop-color="#f87b58"/>
      <stop offset="0.41" stop-color="#f89453"/>
      <stop offset="0.71" stop-color="#f8c548"/>
      <stop offset="1" stop-color="#f89c51"/>
    </linearGradient>
    <linearGradient id="linear-gradient-3" x1="5.072" y1="10.482" x2="6.073" y2="10.482" gradientUnits="objectBoundingBox">
      <stop offset="0" stop-color="#e1a1ed"/>
      <stop offset="1" stop-color="#7658f4"/>
    </linearGradient>
    <linearGradient id="linear-gradient-4" x1="0.001" y1="0.505" x2="1.004" y2="0.505" xlink:href="#linear-gradient"/>
  </defs>
  <g id="Man_simple" data-name="Man simple" transform="translate(-0.053 0.01)">
    <g id="Group_131" data-name="Group 131">
      <path id="Path_90" data-name="Path 90" d="M75.4,334.3c-1.5-6.3-2-14.4-3-14.6H71.3l-10.6.1s-2.2,10.1-3.3,14.3c-.1.3-.3,1-.5,1.5a8.2,8.2,0,0,0-.2,2.2c.2,3.8,1.7,7.1,5.1,8.8,3.8,1.9,6.7,3.7,10.6,0S76.9,340.6,75.4,334.3Z" fill="#4b44be"/>
      <path id="Path_91" data-name="Path 91" d="M41.9,320.7l-13.4.7s-5.3,9.2-13.1,11.4C8.1,334.9-4,340,1.4,342.9c4,2.3,29.8.2,36.1.7,4.7.4,6-2.5,5.5-8.8C42.6,330.1,41.9,320.7,41.9,320.7Z" fill="#4b44be"/>
    </g>
    <path id="Path_92" data-name="Path 92" d="M25.8,153.3s-9,74-9.6,78.8,3.1,29.5,3.1,34.2,8.8,55.2,8.8,55.2l14-.6s-2.8-74.3-2.5-77.9,15.6-46.7,15.6-46.7,1.1,11.4,1.1,15S60.5,320,60.5,320H72.7L90,165.2l-.3-3Z" fill="url(#linear-gradient)"/>
    <path id="Path_93" data-name="Path 93" d="M67,10.4s-13.4,5.2-16.4,6.4-4.7,4.9-4.7,4.9-1.5-.9-1.5,1.6,1.2,8.2,2.2,9.7a81.954,81.954,0,0,1,4.3,7.6c1.2,2.6.8,8-.5,8.8S26.5,70.6,26.5,70.6L7.7,128.5l2.5,18.3,3.8,18s-.8,1.3.8,2.8,8.4,12.7,8.4,12.7l2.3-16.5-7.7-24.5-2.7-20.6,18-36.8L95.5,93l6.8,40.1L89.7,167.3,87.5,184l10.6-9.3c.6-.5,1.8-3.1,2.4-4.5l6.3-17.8,4.7-28.4S72.1,53,70.1,48.8c-.9-1.9.1-6.5.6-8.8.5-2.1,1.5-4.8,2.5-5.6a12.024,12.024,0,0,0,2.6-6c0-1.5.6-7.3-.9-5.9-.3.4-1.4-1.4-1.9-3.7C72.1,15.4,69.7,12.6,67,10.4Z" fill="url(#linear-gradient-2)"/>
    <path id="Path_94" data-name="Path 94" d="M61.9,68.3a2.478,2.478,0,0,1-3.4-.1,27.907,27.907,0,0,1-1.9-3.3c-1-2-8.7-13.3-8.7-13.3s-18.3,4.7-21.2,6.6c-3,2-5.7,4.7-6.7,8.2S4.9,111,4.2,113.5-.1,120,1.6,130.1s11.2,36,12.2,36.3,11.1-4.7,11.1-4.7-8-32.2-8-35.4S24.1,114,27,107.8s5-11.6,6-14.3S24.4,147,24.4,147s-.2,10.2,1.7,11.2c1.8.9,23.3,9.1,28.3,11a1.2,1.2,0,0,0,1.4-.6h0l3.2-9.1c0-.1.1-.2.2-.1a.1.1,0,0,1,.1.1l3,9.9a1.028,1.028,0,0,0,1.2.7L90,164.4s-.4-48.9.1-57.1c.4-8-.6-12.5.9-10.3,1.6,2.4,8.3,24.4,8.3,28.1s-7.5,36.2-7.5,36.2l9.9,5.5s13.4-35.7,14.1-40.4,1-7.2-1.2-11.9-14.4-47.4-14.4-47.4S99,61.9,90,59.2s-15.7-6.7-17.3-6.6-6.6,9.5-8.8,12.3C62.9,66,63.1,66.5,61.9,68.3Z" fill="url(#linear-gradient-3)"/>
    <path id="Path_95" data-name="Path 95" d="M66.9,10.5S51.8,16,48.7,18.3a7.52,7.52,0,0,0-2.8,3.3s-1.6-.7-1.5,1.6-1.8-3.6-2.3-5.5A12.583,12.583,0,0,1,45.7,6.6C49.8,2.7,54.3-.2,58.1,0A14.3,14.3,0,0,1,68,4.2c3,2.9,3.7,2.7,4.3,3a12.253,12.253,0,0,1,4.1,7.2,35.677,35.677,0,0,1-.7,8.9,1.117,1.117,0,0,0-1.5-.2c-.8.6-1-3.4-3.6-8.3C68.7,11.2,66.9,10.5,66.9,10.5Z" fill="url(#linear-gradient-4)"/>
    <path id="Path_96" data-name="Path 96" d="M57.3,188.7c-1.7,5-8.4,14.8-12.8,20.7s-17.9,18.3-17,33.4,10,54,10,57.5-3.4,20-6,25.1-3.8,14.2-2.5,14.2a36.622,36.622,0,0,0,7.3-1c2.2-.5,4.4-1,6.5-1.7.9-.4,1.1-3.3,1.1-3.3a10.779,10.779,0,0,0-.4-3.6,39.467,39.467,0,0,1-1.4-5.7c-.5-14.2-1.8-47.1-1.5-49.4.5-4.3-3-26,.2-36.7S57.3,188.7,57.3,188.7Z" opacity="0.07"/>
    <path id="Path_97" data-name="Path 97" d="M24.9,161.7l-2.3,17.8s2.3,3.7,3,.6,5.5-8.9,2.5-13.1S24.9,161.7,24.9,161.7Z" opacity="0.07"/>
    <path id="Path_98" data-name="Path 98" d="M89.9,166.6l-.8,8.5-1,8.2s-3.4,2.5-3.3-.7-5.7-8-1.3-11.2S89.9,166.6,89.9,166.6Z" opacity="0.07"/>
    <path id="Path_99" data-name="Path 99" d="M47.8,51.7c.6-.1-2.9.8.2-.2,5.3-1.7,3.1-11.7,3.1-11.7s.5,3.7,5.5,5.2,6.3.4-1.2,3.9-3.6,4.7-3.1,9.3" opacity="0.07"/>
    <path id="Path_100" data-name="Path 100" d="M32.8,96.9l-8.4,51s.1,9.1,1.7,10.4,7,2.2,8.2,3.1,14.2,5.2,10.8-2.1c-.8-1.6-18.3-11.4-10.5-21.7s6.4-24.5,2.7-34.4a45.271,45.271,0,0,1-3-18.2Z" opacity="0.07"/>
  </g>
</svg>
