<svg xmlns="http://www.w3.org/2000/svg" xmlns:xlink="http://www.w3.org/1999/xlink" width="118.056" height="352.058" viewBox="0 0 118.056 352.058">
  <defs>
    <linearGradient id="linear-gradient" y1="-0.238" x2="1" y2="-0.238" gradientUnits="objectBoundingBox">
      <stop offset="0" stop-color="#5aceed"/>
      <stop offset="1" stop-color="#4f68ca"/>
    </linearGradient>
    <linearGradient id="linear-gradient-2" y1="0.5" x2="1" y2="0.5" gradientUnits="objectBoundingBox">
      <stop offset="0" stop-color="#f87b58"/>
      <stop offset="0.41" stop-color="#f89453"/>
      <stop offset="0.71" stop-color="#f8c548"/>
      <stop offset="1" stop-color="#f89c51"/>
    </linearGradient>
    <linearGradient id="linear-gradient-3" y1="1.616" x2="1" y2="1.616" gradientUnits="objectBoundingBox">
      <stop offset="0" stop-color="#e1a1ed"/>
      <stop offset="1" stop-color="#7658f4"/>
    </linearGradient>
    <linearGradient id="linear-gradient-4" x1="-0.001" y1="0.501" x2="1" y2="0.501" xlink:href="#linear-gradient"/>
    <clipPath id="clip-path">
      <rect id="Rectangle_29" data-name="Rectangle 29" width="11.4" height="18" transform="translate(67.4 40.8)"/>
    </clipPath>
    <clipPath id="clip-path-2">
      <rect id="Rectangle_30" data-name="Rectangle 30" width="21" height="78" transform="translate(31 85)"/>
    </clipPath>
  </defs>
  <g id="man_with_map" data-name="man with map" transform="translate(-4.459 0.006)">
    <g id="Group_153" data-name="Group 153">
      <path id="Path_121" data-name="Path 121" d="M57.5,323H56l-10.3.1s-2.2,10.1-3.3,14.3a15.463,15.463,0,0,0-.4,1.5,8.2,8.2,0,0,0-.2,2.2c.2,3.8,1.7,7.1,5.1,8.8,3.8,1.9,6.7,3.7,10.6,0s4.5-6,3-12.3S58.5,323.2,57.5,323Z" fill="#4b44be"/>
      <path id="Path_122" data-name="Path 122" d="M98.8,335.8c-6.8-2.2-11.3-11.4-11.3-11.4l-11.6-.7L75,337.8c-.4,6.3.7,9.2,4.8,8.8,5.5-.5,27.8,1.6,31.3-.7C115.6,343,105.1,337.8,98.8,335.8Z" fill="#4b44be"/>
    </g>
    <path id="Path_123" data-name="Path 123" d="M100.8,235.2c.5,4.7-3,29.5-3,34.2s-10.4,55-10.4,55L75.5,324s2.7-74.3,2.4-77.9-15.2-46.7-15.2-46.7-1.1,11.4-1.1,15-4,108.6-4,108.6H45.7l-17-155-1.6-13.2,64.3,1.6s8.8,74,9.4,78.8" fill="url(#linear-gradient)"/>
    <path id="Path_124" data-name="Path 124" d="M108.7,124.7l-5.4,4.6,1.7,7.2,2.3,3.2c-.2.3-.7-1.6,1.7-.2l4.7-.3,3.6-4.7s-1.9-21.7-10.3-36.8ZM102.1,96l-.5-3-1.3-.2,1.8,3.2M56.8,16.1c3-1.3,14.6-6.8,16.3-5.6a15.985,15.985,0,0,1,5.3,8.4c.5,2.3,2.3,5.1,2.6,4.7,1.3-1.3,1,3.6,1,5.1a11.673,11.673,0,0,1-2.8,5.8c-1,.8-2,3.5-2.5,5.6-.5,2.3-1.5,6.9-.6,8.8,1,2.3,13.2,24.4,24.1,44l-61.1-11L19.8,122.7l8.7,7L26,138l-1.6.3s-1.4,3.3-2.9,1.8c-1.2-1.2-3-.6-3.7-.3a1.7,1.7,0,0,1-.7.1l-2-.4-1.3-11L32.6,70.6S55.2,50.3,56.5,49.5s1.7-6.2.5-8.8a81.954,81.954,0,0,0-4.3-7.6c-1-1.5-2.2-7.2-2.2-9.7S52,21.8,52,21.8s1.4-4.9,4.4-6.2c1.1-.7,16.7-5.1,16.7-5.1" fill="url(#linear-gradient-2)"/>
    <path id="Path_125" data-name="Path 125" d="M32.7,58.2c-3,2-5.7,4.7-6.7,8.2S8,102.6,7.2,105s-4,11.8-2.2,22,9.5,12.6,10.8,12.6c.7,0-.6-5.3-.9-8.8-.1-1.3,1-4.5,1.3-5.8.5-1.9,2.1-1.4,2.1-3.1,0-3.2,8-14.3,11-20.5s8.6-7.3,9.6-10S30.5,147,30.5,147s-.2,10.2,1.7,11.2c1.8.9,23.3,9.1,28.3,11a1.2,1.2,0,0,0,1.4-.6h0l3.2-9.1c0-.1.1-.2.2-.1a.1.1,0,0,1,.1.1l3,9.9a1.028,1.028,0,0,0,1.2.7l26.5-5.7s-.4-48.9.1-57.1c.4-8-.6-12.5.9-10.3,1.6,2.4,14.8,15.5,14.8,19.2a5.976,5.976,0,0,0,2.6,5.2l-.7,18s7.5-8.3,8.2-13,1-7.2-1.2-11.9-14.4-47.4-14.4-47.4-1.2-5.2-10.2-7.9-15.7-6.7-17.3-6.6-6.6,9.5-8.8,12.2c-1,1.2-.8,1.8-2.1,3.6a2.074,2.074,0,0,1-2.9.4c-.2-.2-.4-.3-.5-.6-.7-1.1-1.3-2.2-1.9-3.3-1-2-8.7-13.3-8.7-13.3s-18.3,4.6-21.3,6.6" fill="url(#linear-gradient-3)"/>
    <path id="Path_126" data-name="Path 126" d="M73.1,10.5s-15.5,5.2-18.3,7.7A13.524,13.524,0,0,0,52,21.8s-1.5-.6-1.5,1.6c0,0-.6-1.5-1.1-2.4s-2.4-5.7-.6-9.5a17.743,17.743,0,0,1,4.9-6.6c.9-.6,6.1-5.1,11.2-4.9s8.4,3.7,9.3,4.5c1,.8,2.8,2.3,4,2.6,1.2.4,4.2,4.4,4.4,7.4s-.9,9.5-.9,9.5-.1-.9-.7-.4-2.3-2.7-2.8-5S73.1,10.5,73.1,10.5Z" fill="url(#linear-gradient-4)"/>
    <g id="Group_158" data-name="Group 158" opacity="0.07">
      <g id="Group_157" data-name="Group 157">
        <g id="Group_156" data-name="Group 156">
          <g id="Group_155" data-name="Group 155">
            <g id="Group_154" data-name="Group 154" clip-path="url(#clip-path)">
              <path id="Path_127" data-name="Path 127" d="M78.2,52.7c-.1-.3,1.8,1.1-.4-.5-3.1-2.2-1.7-11.6-1.7-11.6a10.384,10.384,0,0,1-5.6,5.3c-4,1.5-5.2.4.9,3.9s2.9,4.7,2.5,9.3"/>
            </g>
          </g>
        </g>
      </g>
    </g>
    <g id="Group_163" data-name="Group 163" opacity="0.07">
      <g id="Group_162" data-name="Group 162">
        <g id="Group_161" data-name="Group 161">
          <g id="Group_160" data-name="Group 160">
            <g id="Group_159" data-name="Group 159" clip-path="url(#clip-path-2)">
              <path id="Path_128" data-name="Path 128" d="M38.9,96.9l-8.4,51s.1,9.1,1.7,10.4,7,2.2,8.2,3.1,14.2,5.2,10.8-2.1c-.8-1.6-18.3-11.4-10.4-21.7s6.4-24.5,2.7-34.4a45.271,45.271,0,0,1-3-18.2Z"/>
            </g>
          </g>
        </g>
      </g>
    </g>
    <path id="Path_129" data-name="Path 129" d="M53,165.6s-7.1,37.8-3.4,52.9c5.6,22.9-2.5,53.9-2.5,68.8,0,9.6,3.8,36.4,4,47.2.1,3.3,2.4,9.6.7,11.1-.8.6-5.3-.8-7.8-2a3.294,3.294,0,0,1-1.9-3.4l1.5-6.5,2.1-8.5L31,186.9s-4.8-30.8-2.1-30.9S53,165.6,53,165.6Z" opacity="0.07"/>
    <path id="Path_130" data-name="Path 130" d="M40,96l23-7,1,65-21,8Z" fill="#fff"/>
    <path id="Path_131" data-name="Path 131" d="M63,89l27,8v64l-26-7Z" fill="#fff"/>
    <path id="Path_132" data-name="Path 132" d="M90,97l26-8-3.6,33.8-6.4,4.7a2.836,2.836,0,0,0-1.2,2l-.2,1.2a3.722,3.722,0,0,0,.2,1.8l1.1,2.7a4.522,4.522,0,0,0,1.9,2.2l3.7,2-.2,13.7L90,161Z" fill="#e1e6fc"/>
    <path id="Path_133" data-name="Path 133" d="M40,96,14.8,88.2l3.5,34.3,6.3,4.8a3.219,3.219,0,0,1,1.2,2l.2,1.2a3.591,3.591,0,0,1-.2,1.8l-1,2.8a4.522,4.522,0,0,1-1.9,2.2l-3.6,2,.2,14.5L43,162Z" fill="#e1e6fc"/>
    <path id="Path_134" data-name="Path 134" d="M62.5,89.2,63,89l.4.1,1.2,65.1L64,154l-.7.2Z" fill="#e1e6fc"/>
  </g>
</svg>
