<svg xmlns="http://www.w3.org/2000/svg" width="35.662" height="28.518" viewBox="0 0 35.662 28.518">
  <path id="Shape_513" data-name="Shape 513" d="M500.495,307.888l-3.351-1.436,1.755-3.829-4.085,1.356a7.112,7.112,0,0,0-11.967,5.265v1.6c-5.648,1.165-10.579-1.915-15.158-7.18q-1.2,6.383,2.393,9.574l-5.249-.8a7.259,7.259,0,0,0,6.781,6.382l-4.388,1.6c1.6,3.191,4.5,3.686,8.377,3.989a18.375,18.375,0,0,1-10.77,3.191c20.36,9.047,32.311-4.244,32.311-15.956v-1.324Z" transform="translate(-464.833 -302.064)" fill="#fff"/>
</svg>
