<svg xmlns="http://www.w3.org/2000/svg" xmlns:xlink="http://www.w3.org/1999/xlink" width="151.723" height="517.802" viewBox="0 0 151.723 517.802">
  <defs>
    <linearGradient id="linear-gradient" y1="-0.249" x2="1" y2="-0.249" gradientUnits="objectBoundingBox">
      <stop offset="0" stop-color="#4f68ca"/>
      <stop offset="1" stop-color="#5aceed"/>
    </linearGradient>
    <linearGradient id="linear-gradient-2" y1="0.5" x2="1" y2="0.5" gradientUnits="objectBoundingBox">
      <stop offset="0" stop-color="#f87b58"/>
      <stop offset="0.5" stop-color="#f8c548"/>
      <stop offset="1" stop-color="#f89c51"/>
    </linearGradient>
    <linearGradient id="linear-gradient-3" y1="1.617" x2="1" y2="1.617" gradientUnits="objectBoundingBox">
      <stop offset="0" stop-color="#e1a1ed"/>
      <stop offset="1" stop-color="#7658f4"/>
    </linearGradient>
    <linearGradient id="linear-gradient-4" y1="2.841" x2="1" y2="2.841" gradientUnits="objectBoundingBox">
      <stop offset="0" stop-color="#4b44be"/>
      <stop offset="1" stop-color="#5bd3ef"/>
    </linearGradient>
    <clipPath id="clip-path">
      <rect id="Rectangle_31" data-name="Rectangle 31" width="46" height="500" transform="translate(20.1 16.7)" opacity="0.07"/>
    </clipPath>
  </defs>
  <g id="woman_check_phone" data-name="woman check phone" transform="translate(0.17 -0.5)">
    <g id="Group_166" data-name="Group 166">
      <path id="Path_147" data-name="Path 147" d="M57.4,480.2l-13.2,3s-3.2,10.4-4.7,16c-.1.3-.4,1.3-.6,1.9a14.279,14.279,0,0,0-.3,2.9c.3,5,2.2,9.3,6.6,11.5,4.9,2.5,8.7,4.8,13.9,0s6.1-7.8,3.9-16.1-5.6-19.1-5.6-19.2" fill="#4b44be"/>
      <path id="Path_148" data-name="Path 148" d="M134,497.5c-8.9-2.8-12.7-13.8-12.7-13.8l-17.9-.9s-.4,11.2-.9,17.3c-.6,8.1.9,11.7,6.3,11.2,7.2-.6,36.6,2,41.2-.9,6.2-3.7-7.6-10.3-16-12.9" fill="#4b44be"/>
    </g>
    <path id="Path_149" data-name="Path 149" d="M29.8,227.8s-6.7,9.2-8.8,34,2.6,71.9,4.8,81S36.8,437,39,443.2s5.2,40.1,5.2,40.1l14.2.4s4.2-44.2,4.2-55.9,5.9-122.4,5.5-130.5,1.5-5.5,1.5-5.5S82,331.4,85.7,338,96,357.5,96,357.5,97.5,399,99.3,423s3.7,61.8,3.7,61.8l19.1-.4s4.4-63.2,4.4-76.5,4-45.2,4-48.9-12.4-68.3-12.4-68.3l-8.7-63Z" fill="url(#linear-gradient)"/>
    <path id="Path_150" data-name="Path 150" d="M52.3,19.2c-6.5,2.4-14.8,34.7-14.8,34.7l-.1-.1-3.6,3.6,1.5,6.8,6.3,106.5,32.6-7,28.5-30.2,17.8,8.4s1.4,38.7,1.6,40.8,3.2,60.6,3.2,64.4c.1,4.1,17.5,22.5,20.4,20.5,8.6-6-5.7-17.1-9.1-19.8-2-1.6-6.3-56-6.6-62.4s9.9-22.7-7.8-44.2c-12.9-15.7-19.9-56-30.7-101.8C85.8,15.6,82.4,8.5,76.8,8.5c-5.1,0-12.1,6.1-24.5,10.7" fill="url(#linear-gradient-2)"/>
    <path id="Path_151" data-name="Path 151" d="M46.8,109.9c-.1.3-12.4,6.1-17.7,12.6s-9.6,15.9-9.6,15.9-7.8,18.4-13.2,32c-2.9,7.3-12.4,37.2-1,38.3,10.8,1,34.7-24.4,38.4-29.2l4.1-9.2c.3-1.2-6.4-13.6-6.2-14.7.2-1.8,15.8-10.9,18.2-5.5.8,1.8,2.9,7,3.5,8.6,1.5,3.9-21.2,11.5-21.2,15,0,4.3-1.9,20.2-5,28S29.3,228,29.3,228l79.8.2s-2.7-35.5-1.6-47.3c0,0,3.4-38.7,5.4-42.5s5.4,47.8,4.9,58.4c-.4,7.4,6.3,51.8,8.2,53.4,3.1,2.4,10.4-2.4,10.4-2.4s-.3-48.7-.6-56.8.2-73.6-10.5-85.4-13.6-11.5-22.5-8.4-13.3,6.1-25.4,8.1a38.642,38.642,0,0,1-22-2.7c1.9-6.9-2.1,4.8-1.6,1.6" fill="url(#linear-gradient-3)"/>
    <path id="Path_152" data-name="Path 152" d="M58.6.9S42.7,1.5,38.2,17,33,54.3,32.9,57.7c-.2,3.6,1.7,28-.3,34.8-1.8,6-6.9,17.1-10,24.8a50.575,50.575,0,0,0-2.7,9.4l-.4,2.6a5.128,5.128,0,0,0,6.5,3.4c.2-.1.4-.1.5-.2a40.178,40.178,0,0,0,4.6-2.4c4.8-2.9,10.9-10.6,15.7-13,5.1-2.5,10.9-14.1,11.7-15s.5-3.8.6-6.6c.5-14.5-2.2-27.8-5.6-34.8S42.3,40,47.7,32.1,64.4,17.9,64.9,16s.8,7.6,6.8,11S86.1,39.5,86.1,41.5s2,8.5-3.7,19.8S72.2,87,80.1,97.8s27.8,25.8,29.2,29.2,0,18.5-.5,27,16.1-14.5,15.5-25.6,1.4-15.9-9.9-32.8-18.7-46.1-19-53.2S91.7,15.7,84.9,10C79.1,5.2,77.8.5,65.7.5c-2.4,0-4.8.2-7.1.4" fill="url(#linear-gradient-4)"/>
    <g id="Group_171" data-name="Group 171">
      <g id="Group_170" data-name="Group 170">
        <g id="Group_168" data-name="Group 168" opacity="0.07">
          <g id="Group_167" data-name="Group 167" clip-path="url(#clip-path)">
            <path id="Path_153" data-name="Path 153" d="M52.5,149.6a55.237,55.237,0,0,0-6.9,3.4l-2.4,1.2s-25.4,26.5-24.3,25.1c4.9-6.1,20.1-38.5,25.2-46,5.4-7.8,8.4-4.7,14.3,16"/>
          </g>
        </g>
        <g id="Group_169" data-name="Group 169" opacity="0.07">
          <path id="Path_154" data-name="Path 154" d="M51.3,483.1a2.769,2.769,0,0,1,.1.9c.1,2.2,0,7.7-2.4,11.2-3,4.6,4.1,14.7,4.1,17.2s-3.3,4.8-5.6,4.1-11.9-6.1-8.1-17.7c1.5-4.7,2.4-8.8,3.3-11.4.5-1.3.9-2.6,1.3-3.9a10.869,10.869,0,0,0,.1-1.8c-.1-.8-.1-1.7-.2-2.6-.5-4.5-19.5-144.8-20.2-150.2-.6-4.8-3.4-34.5-3.1-51.9a21.741,21.741,0,0,1-.1-4.4,23.522,23.522,0,0,0,.1-2.8c.1-1.6.2-3.2.4-4.8-.3-1.3-.1-1.3,0-3.4s0-3.3.2-4.6c1.9-11.8,6.2-25.2,8.3-29l.6-2.1s4.8-17.8,6.4-21.1c1.4-3,5.4-18.7,5-22-.2-1.8,6.2-8.8,6.2-8.8l1.3-1.1a4.133,4.133,0,0,1,1.9.2c1.4.6,6.8-4.1,7.7-1.1,6.4,20.5,9,29.2-2.3,41.4s-.9,23.1-.7,31.7c.5,21.2-9.8,18.9-10.4,32.1s2.3,22.7,2.5,29.6c.5,22.7.2,27.2-1,36.1s-7.3,25.8-.5,59,5.8,36.2,5.1,55,0,26.2,0,26.2"/>
        </g>
        <path id="Path_155" data-name="Path 155" d="M40.8,140.1l.2-.1c.8-.4,5.5-2.8,8.8-4.1,3.7-1.5,8.2,11.1,9.3,13.6.1.2.1.2-.7.3a53.733,53.733,0,0,0-8,1.5c-3.8.9-8.1,3.9-8.3,4s-1.3-2.3-3.5-7.9c-.5-1.3-1.6-4.7-.6-5.5Z" fill="#efefef"/>
      </g>
      <path id="Path_156" data-name="Path 156" d="M69.5,73.2a6.539,6.539,0,0,0,7-1.6c3.2-3.2-1.2,7.9-.5,10.4S69.5,73.2,69.5,73.2Z" opacity="0.07"/>
      <path id="Path_157" data-name="Path 157" d="M47.8,169.4s15.1-9.9,15.3-9.5c.4.9,1.7,4.5,1.7,4.5s1.2,2.3.8,3-14.7,6.8-14.7,6.8a1.6,1.6,0,0,1-1.3-.9A23.215,23.215,0,0,1,47.8,169.4Z" fill="#efefef"/>
    </g>
  </g>
</svg>
