<svg xmlns="http://www.w3.org/2000/svg" xmlns:xlink="http://www.w3.org/1999/xlink" width="313.544" height="432.84" viewBox="0 0 313.544 432.84">
  <defs>
    <linearGradient id="linear-gradient" x1="3.256" y1="-7.659" x2="2.256" y2="-7.659" gradientUnits="objectBoundingBox">
      <stop offset="0" stop-color="#5aceed"/>
      <stop offset="1" stop-color="#538bd6"/>
    </linearGradient>
    <linearGradient id="linear-gradient-2" y1="0.5" x2="1" y2="0.5" gradientUnits="objectBoundingBox">
      <stop offset="0" stop-color="#f87b58"/>
      <stop offset="0.5" stop-color="#f8c548"/>
      <stop offset="1" stop-color="#f89c51"/>
    </linearGradient>
    <linearGradient id="linear-gradient-3" y1="1.553" x2="1" y2="1.553" gradientUnits="objectBoundingBox">
      <stop offset="0" stop-color="#e1a1ed"/>
      <stop offset="1" stop-color="#7658f4"/>
    </linearGradient>
    <linearGradient id="linear-gradient-4" x1="0" y1="2.353" x2="1" y2="2.353" xlink:href="#linear-gradient"/>
    <linearGradient id="linear-gradient-5" x1="1" y1="-25.843" x2="0.003" y2="-25.843" gradientUnits="objectBoundingBox">
      <stop offset="0" stop-color="#59c2e9"/>
      <stop offset="1" stop-color="#5bd3ef"/>
    </linearGradient>
  </defs>
  <g id="woman_sitting" data-name="woman sitting" transform="translate(-121.91)">
    <g id="woman">
      <g id="Group_172" data-name="Group 172">
        <path id="Path_158" data-name="Path 158" d="M346.5,407c-5.9-9.8-10.6-12.4-25.2-12.8s-34-.2-34-.2l-.2,20.7s16.1,9.3,24.7,13.9c.5.3,1.9,1.1,2.9,1.7a26.4,26.4,0,0,0,4.7,1.7c8.5,1.8,16.2.9,21.7-4.6C347.2,421.3,352.4,416.8,346.5,407Z" fill="#4b44be"/>
        <path id="Path_159" data-name="Path 159" d="M236.4,388.6c-.5.4-1.8,1.4-2.7,2.1a29.067,29.067,0,0,0-3.3,3.7c-4.8,7.2-6.9,14.7-3.8,21.9,3.4,7.9,5.7,14.5,16.9,12.6s15.5-5.3,21.3-18.6,12.9-31.5,12.8-31.5l-19.1-7.9S243.9,382.4,236.4,388.6Z" fill="#4b44be"/>
      </g>
      <path id="Path_160" data-name="Path 160" d="M288.6,394.9s.3,20.9-3.1,21.4-50.3-6.3-69-7.3-61.1-13.1-81.9-36.6c-18-20.3-15.2-42.8-1.9-42.8s25.5-11.3,59.3,4.8,69.6,18.8,89.7,17.2,76.4-12,80.8-15.2,25.5-12.4,54.9-9.2,15.5,26.5,9.3,35.5c-8.7,12.5-29.3,25.9-46.5,26.5S288.6,394.9,288.6,394.9Z" fill="url(#linear-gradient)"/>
      <path id="Path_161" data-name="Path 161" d="M253.8,29.4C243.9,33,231.3,82,231.3,82l-.2-.2-1.4,6.8L228,97.5l3.3,53.2,32,16,73.5,19.8,20.3,28.9s45.5,46.3,45.8,49.5-48.9,19.5-53.6,20.2c-11.3,1.7,72.3-18.8,45.5-51.3-11.4-13.9-28.1-55.7-61.2-83.4-19.2-16-13.8-61.5-20.6-90.3-8.5-36-13.7-46.8-22.2-46.8-7.7,0-18.4,9.2-37,16.1" fill="url(#linear-gradient-2)"/>
      <path id="Path_162" data-name="Path 162" d="M357.8,145.7c-15.4-14.1-20.6-17.5-34.1-12.7s-20.1,9.2-38.5,12.2a58.357,58.357,0,0,1-33.5-4.1l-37.9,3.8c-4.8-.6-58.7,100.6-60,121.6-.8,12.9,28.5,32.8,36.7,34.8,3.3.8,9.2-31,11.1-33.9l-12.3-3.8c2.2-5.5,9.6-19.1,14.5-26.4,1.5-2.3,13.2-21.6,14.8-29,.3.7,2,14.7,3.6,19.2,3,8.3,7.1,13,7.1,19.6s-.8,32.8-5.6,44.6-11.8,39.1-11.8,39.1l121.2-.7s-4.4-52.1-2.6-70c0,0-1.9-7.2,1.7-17.6,5.9-17.2,7.6-42.8,6.6-46.8-1.5-6.3,35.6,47,43.7,60.5,3.4,5.6-42.7,15.5-46.5,19.8-4,4.5,3.9,16.7,3.9,16.7s80.4-9.8,80-22.1S375.7,162,357.8,145.7Z" fill="url(#linear-gradient-3)"/>
      <path id="Path_163" data-name="Path 163" d="M263.5.6s-22.5.9-29,24.5-7.4,56.5-7.6,61.6c-.2,5.4,2.3,37-9.8,50.2-10.4,11.4-6.2,22.4-8.8,31.5l-1.2,15.1a4.777,4.777,0,0,0,3.2,3.9c1.6.5,7.2-2.1,8.2-2.5,14-5.6,14-10.1,19.3-14.6,4.4-3.7,16.5-12.3,20.1-15.7s6.1-6.4,6.3-10.7c.7-21.9-3.1-42.1-7.9-52.8s-14-28.8-6.3-40.8,21.6-24,22.4-27,1.2,11.6,9.7,16.7,15.6,12.2,18.2,19.1c2.2,5.8,5.1,15.7-2.9,32.8s-14.5,39.1-3.2,55.4,35.1,33.9,39,42.1c4.4,9.1.2,30.5-.6,43.4s25.2-22.4,24.4-39.2,2-24-14.1-49.8-26.6-70-27-80.7S310.7,22.7,301,14.2C292.6,7,290.8,0,273.6,0a84.281,84.281,0,0,0-10.1.6" fill="url(#linear-gradient-4)"/>
      <path id="Path_164" data-name="Path 164" d="M212.2,358.2l113.6.6s-13.3,10.4-19.7,11.6-33.8,14.8-44,9.6C254.9,376.1,212.2,358.2,212.2,358.2Z" opacity="0.07"/>
      <path id="Path_165" data-name="Path 165" d="M275.5,103.1s10.6,2.7,15-3.5c9.9-14,.9,7.1.9,7.1s-2.9,8.2-2.7,12.3-11.4-15.3-13.2-15.9" opacity="0.07"/>
      <path id="Path_166" data-name="Path 166" d="M233.1,175.1c-1.3,1.6-3.2,2.9-4.2,7-1.7,6.6-3.5,14-8.1,20.8-2.7,4-1.2,19.5,3.3,29.3,1.3,2.8,5.3,10.1,5.2,11.8l-.3,14.2h12.2s10.4,1.1,8.2-7.5c-1.9-7.6-11.8-35.9-5.1-42.1,12.6-11.5-3.3-34.5,2.6-41.9,5.1-6.4,12.4-11,12.4-13.1,0-.8-1.9,1.8-3.2,2.7-2.5,1.8-3.8,3.2-5.9,4.6-2.3,1.5-5.8,4-8.1,5.7A55.645,55.645,0,0,0,233.1,175.1Z" opacity="0.07"/>
    </g>
    <g id="laptop">
      <path id="Path_167" data-name="Path 167" d="M185.6,266.2s-.1-7.4,7.2-7.7,161.9-.1,161.9-.1,6.8.8,7,6.3.2,87.2.2,87.2a6.407,6.407,0,0,1-6.6,6.5c-6.7.2-164.3.2-164.3.2s-5.9-1.5-5.8-7.4S185.6,266.2,185.6,266.2Z" fill="#fff"/>
      <circle id="Ellipse_16" data-name="Ellipse 16" cx="6.7" cy="6.7" r="6.7" transform="translate(267.5 301.8)" fill="url(#linear-gradient-5)"/>
    </g>
  </g>
</svg>
