<svg xmlns="http://www.w3.org/2000/svg" xmlns:xlink="http://www.w3.org/1999/xlink" width="162.525" height="516.096" viewBox="0 0 162.525 516.096">
  <defs>
    <linearGradient id="linear-gradient" x1="9.153" y1="3.883" x2="10.701" y2="3.887" gradientUnits="objectBoundingBox">
      <stop offset="0" stop-color="#4f68ca"/>
      <stop offset="1" stop-color="#5aceed"/>
    </linearGradient>
    <linearGradient id="linear-gradient-2" x1="8.33" y1="4.587" x2="9.33" y2="4.587" gradientUnits="objectBoundingBox">
      <stop offset="0" stop-color="#f87b58"/>
      <stop offset="0.5" stop-color="#f8c548"/>
      <stop offset="1" stop-color="#f89c51"/>
    </linearGradient>
    <linearGradient id="linear-gradient-3" x1="6.45" y1="6.421" x2="7.45" y2="6.421" gradientUnits="objectBoundingBox">
      <stop offset="0" stop-color="#e1a1ed"/>
      <stop offset="1" stop-color="#7658f4"/>
    </linearGradient>
    <linearGradient id="linear-gradient-4" x1="9.972" y1="6.111" x2="10.972" y2="6.111" gradientUnits="objectBoundingBox">
      <stop offset="0" stop-color="#4b44be"/>
      <stop offset="1" stop-color="#5bd3ef"/>
    </linearGradient>
  </defs>
  <g id="woman_talking" data-name="woman talking" transform="translate(0.024 -0.007)">
    <g id="Group_173" data-name="Group 173">
      <path id="Path_168" data-name="Path 168" d="M53.4,478l-13.2,3s-3.2,10.4-4.7,16c-.1.3-.4,1.3-.6,1.9a14.279,14.279,0,0,0-.3,2.9c.3,5,2.2,9.3,6.6,11.5,4.9,2.5,8.7,4.8,13.9,0s6.1-7.8,3.9-16.1S53.4,478,53.4,478Z" fill="#4b44be"/>
      <path id="Path_169" data-name="Path 169" d="M130.1,495.3c-8.9-2.8-12.7-13.8-12.7-13.8l-17.9-.9s-.4,11.2-.9,17.3c-.6,8.1.9,11.7,6.3,11.2,7.2-.6,36.6,2,41.2-.9C152.2,504.5,138.4,497.9,130.1,495.3Z" fill="#4b44be"/>
    </g>
    <path id="Path_170" data-name="Path 170" d="M25.8,225.4s-6.7,9.2-8.8,34,2.6,71.9,4.8,81,11,94.1,13.2,100.4,5.2,40.1,5.2,40.1l14.2.4s4.2-44.2,4.2-55.9S64.4,303,64,294.9s1.5-5.5,1.5-5.5S78,329.1,81.7,335.7,92,355.2,92,355.2s1.5,41.5,3.3,65.5S99,482.5,99,482.5l19.1-.4s4.4-63.2,4.4-76.5,4-45.2,4-48.9S114,288.3,114,288.3l-8.7-63Z" fill="url(#linear-gradient)"/>
    <path id="Path_171" data-name="Path 171" d="M33.6,51.7S41.9,19.4,48.4,17C74,7.5,76.6-8.5,87.5,37.3s41.1,98.9,54,114.6c17.7,21.5,16.2,35.4,9.9,36.7s-38.5,9.8-41,10.6,5.2,23.1-5.6,20c-6-1.7-6.5-28.2,1-29.4,3.1-.5,38.8-7.6,38.6-9.7s-27.8-40.4-27.8-40.4l-17.8-8.4L54.7,107.6,33.6,97.1,31.4,62l-1.5-6.8,3.6-3.6" fill="url(#linear-gradient-2)"/>
    <path id="Path_172" data-name="Path 172" d="M27.9,95s.2,2.5-5.8,11.1c-3.6,5.2,5.5,1.5-2.2,14.6C7.7,141.4.9,163.6,0,177.4c-.5,8.5,6.9,6.8,10,9.5,1.7,1.5,7.3-1,8.6-2.9l2.5-4.4c.7-1,7.5-11,7.7-12.2.6-3.9,4.4-20.4,5.7-26.3,1.1-5,9.9-16.4,17-39.9,2.1-7.2,0-10.2.5-13.5C53.5,77,38.5,77.2,37.2,80.9c-.3.9-11.7,45.9-12.3,51.9-.2,2,3.8,19.8,6.9,24.7s6.6,8.4,6.6,12.7-2,21.9-5.2,29.7-7.8,25.8-7.8,25.8l79.9-.4s-2.9-34.3-1.7-46.2c0,0,3.4-38.7,5.4-42.5s23.4,31,28.8,39.9c2.2,3.7-28.2,10.2-30.7,13.1s2.6,11,2.6,11,53.1-6.5,52.8-14.6-30.3-70.5-41-82.3S108,92.3,99,95.5s-13.3,6.1-25.4,8.1A38.5,38.5,0,0,1,47.9,99C43.6,96.3,27.9,95,27.9,95Z" fill="url(#linear-gradient-3)"/>
    <path id="_Path_" d="M17,125.8a33.36,33.36,0,0,0,2.5-4c.7-1.3,1.2-2.1,1.5-2.7,3.9-6.6,12.8-21.7,14.2-28.3a54.453,54.453,0,0,0,1.8-8,20.3,20.3,0,0,0,.2-5.5c-.5-3.4-7.4-17.6-6.4-18.9.1-.2,1-4.2,2.3-2.9,1.5,1.5,11.3,6.9,12,7.9a52.768,52.768,0,0,1,4.5,10.7c.7,2.2,1.3,8.6,1.5,9.1,2.1,5.3-.3,9.3-.1,12.1.1,1,.1,5,.6,5.4,1.4,1,3.3,1.9,4.1.9s.5-3.8.6-6.6c.5-14.5-2.2-27.8-5.6-34.8S39.4,39.5,44.8,31.6,61.5,17.5,62,15.5s.8,7.6,6.8,11S83.2,39,83.2,40.9s2,8.5-3.7,19.8S69.3,86.5,77.2,97.2,105,123,106.4,126.4s0,18.5-.5,27,16.1-14.5,15.5-25.6,1.4-15.9-9.9-32.8-18.7-46.1-19-53.2S88.9,15.2,82.1,9.5,74.7-1.5,55.8.4c0,0-15.9.6-20.4,16.1S30.2,53.8,30,57.2c-.2,3.6,1.4,25.6-.6,32.5s-11.3,21.6-13.1,27.6" fill="url(#linear-gradient-4)"/>
    <path id="Path_173" data-name="Path 173" d="M47.3,481a2.769,2.769,0,0,1,.1.9c.1,2.2,0,7.7-2.4,11.2-3,4.6,4.1,14.7,4.1,17.2s-3.3,4.8-5.6,4.1-11.9-6.1-8.1-17.7c1.5-4.7,2.4-8.8,3.3-11.4.5-1.3.9-2.6,1.3-3.9a10.869,10.869,0,0,0,.1-1.8c-.1-.8-.1-1.7-.2-2.6-.5-4.5-19.5-144.8-20.2-150.2-.6-4.8-3.4-34.5-3.1-51.9a21.741,21.741,0,0,1-.1-4.4,23.522,23.522,0,0,0,.1-2.8c.1-1.6.2-3.2.4-4.8-.3-1.3-.1-1.3,0-3.4s0-3.3.2-4.6c1.9-11.8,6.2-25.2,8.3-29l.6-2.1s3.5-15.8,5.1-19.1c1.4-3,7.5-32.7,7-36S31.3,157,31.3,157l.9-4.5s2-6.6,4-12.2c1.6-4.3,6.7-15.7,8.8-20.6,3.4-8,5-11.1,5.7-16.4.5-4,.9-2.3,2.7-1.5,2.6,1,2.7-.3,2.8-2.8a226.861,226.861,0,0,0-.9-23.3c-.8-6.1-7.1-15.9-9.8-21.9A55.264,55.264,0,0,1,41.7,44c-1.2-5.2-1.1-11,3.8-15.9,4.3-4.3,17.1-13.2,17.1-13.2s-5.9,12-3.5,16.1c3.9,6.3,2,14.3,2,17.1S58,57.9,59.9,65c3.3,12.5-2.4,19.6-.3,28.1,1.3,5.2,2.1,6.9.8,11.5s-14.2,39.5-7.1,59.8,10.4,34.7-1,46.9-.9,23.1-.7,31.7c.5,21.2-9.8,18.9-10.4,32.1s2.3,22.7,2.5,29.6c.5,22.7.2,27.2-1,36.1s-7.3,25.8-.5,59,5.8,36.2,5.1,55S47.3,481,47.3,481Z" opacity="0.07"/>
    <path id="Path_174" data-name="Path 174" d="M28.2,45a67.131,67.131,0,0,1,8.6-5.1c3.7-1.5,5.4,4,6.4,6.5s6,17.9,6.2,19.1c.1.5-.7.4-3.3,2.4-.4.3-1.1.1-1.9-1.7-.4-1-1.7-3.4-3.2-4.2-.6-.3-10-3.6-10.1-2.7s2.2,6.6,3.4,9.9c.1.3,1.7,3.6,1.4,4.2-.1.1.1,0,.1,0s-1.7.6-2.2,0-5.3-16.1-7.1-22c-.4-1.3-1.3-3.1-.4-3.9Z" fill="#efefef"/>
  </g>
</svg>
