<svg xmlns="http://www.w3.org/2000/svg" xmlns:xlink="http://www.w3.org/1999/xlink" width="350.108" height="500.079" viewBox="0 0 350.108 500.079">
  <defs>
    <linearGradient id="linear-gradient" x1="6.357" y1="4.703" x2="7.356" y2="4.703" gradientUnits="objectBoundingBox">
      <stop offset="0" stop-color="#4f68ca"/>
      <stop offset="1" stop-color="#5aceed"/>
    </linearGradient>
    <linearGradient id="linear-gradient-2" x1="10.658" y1="4.31" x2="11.656" y2="4.31" gradientUnits="objectBoundingBox">
      <stop offset="0.11" stop-color="#f87b58"/>
      <stop offset="0.5" stop-color="#f8c548"/>
      <stop offset="1" stop-color="#f89c51"/>
    </linearGradient>
    <linearGradient id="linear-gradient-3" x1="9.632" y1="4.394" x2="11.029" y2="3.979" gradientUnits="objectBoundingBox">
      <stop offset="0" stop-color="#7658f4"/>
      <stop offset="1" stop-color="#e1a1ed"/>
    </linearGradient>
    <linearGradient id="linear-gradient-4" x1="11.1" y1="7.376" x2="12.1" y2="7.376" gradientUnits="objectBoundingBox">
      <stop offset="0" stop-color="#4b44be"/>
      <stop offset="1" stop-color="#5bd3ef"/>
    </linearGradient>
  </defs>
  <g id="women_handup" data-name="women handup" transform="translate(0.008 -0.246)">
    <g id="Group_174" data-name="Group 174">
      <path id="Path_175" data-name="Path 175" d="M192.8,494.2c-2.8-1.8-6.1-4.1-14.3-5.7-6.7-1.2-10.7-11.7-10.7-11.7H152.2s-1.4,17.4-.7,18.8,1.1,2.9,4.7,4,35.2.7,36.6.4S198.1,497.6,192.8,494.2Z" fill="#4b49bb"/>
      <path id="Path_176" data-name="Path 176" d="M11.4,326.9C9.3,330,.1,360.2,0,361.7s.7,5.8,5.5,1.8c2.6-2.2,5.8-4.6,9.7-12,3.2-6,14.4-6.7,14.4-6.7L34.4,330s-16.2-6.6-17.8-6.4S13.5,323.8,11.4,326.9Z" fill="#4b49bb"/>
    </g>
    <path id="Path_177" data-name="Path 177" d="M114.1,272.1c-.4.1-.9,3-1,3.4-2.3,7.4-24,73.4-24,76.2s-46.5-18.2-54-21.5a1.136,1.136,0,0,0-1.5.5c-1.5,3.2-5.8,12.7-4.3,13.8,1.9,1.3,50.8,36.2,54.8,37.2s10,6,20-6c8.6-10.3,32.6-49.3,39.3-60.2a1.129,1.129,0,0,1,1.5-.4,1.456,1.456,0,0,1,.6.9c1.2,10.5,1.7,51.2,5.2,62.1s-1.5,22.6-1.5,38.6l2.9,58.9a1.11,1.11,0,0,0,1.1,1.1l13.5.3a1.188,1.188,0,0,0,1.2-1c.9-9.5,9.8-80.7,10.7-91.8,1-12,6.8-112.7,5.2-118.8C182.6,261.6,121.5,270.9,114.1,272.1Z" fill="url(#linear-gradient)"/>
    <path id="Path_178" data-name="Path 178" d="M119.1,94.8s3.4-13.6,6.1-13.6,19.1,2,21.1,11.6,9.5,15,9.5,26.6,4.8,17,4.8,17,5.4-17.1,9.4-24.5,11.1-12.1,11.1-17.1-6-61.8-6.5-63.3-2-10.5,1.5-15.6c0,0,10.8-8.9,12.2-12.5,1.1-3,4.6-4.7,6.6-1.2s-6.3,13-7.7,16.8a52.5,52.5,0,0,0-2.5,11.1c0,1-2,16.1-2,23.6s4.5,31.2,4.5,38.7-16.6,37.6-18.1,43.2-49.8,58.3-50.8,59.8-6,13.1-6,17.1,0,17.1,2,14.6,10.3-22.5,11.8-25,13.4-4.9,19-6.4,13.8,1.5,12.8,5-17.3,10.1-22.5,11.4c-3.3.8-17.6,16.6-18.6,21.1s-14.1-2-14.1-8.5,1.5-39.7,3.5-44.2,11.1-24.1,16.1-34.2-6-15.1-8-22.1S119.1,94.8,119.1,94.8Z" fill="url(#linear-gradient-2)"/>
    <path id="Path_179" data-name="Path 179" d="M162.3,126.9s13.1-23.5,14.4-29.4-2-66.2-2-66.2l10.1-1.5s9.7,55.9,11,62.4-3.4,20.5-7.9,28.4-16.9,41-16.9,44.9.8,41,2.8,48.2,10.1,51.9,10.1,51.9l-70,6.6s3.1-19.5,2.9-26c-.5-14.3-4.4-24.9,6-31.6,7-4.4,13.6-2.3,21.1-6,8.7-4.3,10.7-7.8,11.2-10.2.3-1.4-1.9-4.6-15.4.4-4.5,1.7-13.6,1.6-13.8,7.4-.1,4.9,6.2,15.5-1.4,20.3,0,0-8.7,20.5-16.8,23.7-7,2.7-15.3-4.7-15.1-14.4.2-11.6.9-33.8,6.2-43.5s19.8-34.6,22.4-36.6,10.5,7.5,19.7,6.2,13-5.6,15-10.1S162.3,126.9,162.3,126.9Z" fill="url(#linear-gradient-3)"/>
    <path id="Path_180" data-name="Path 180" d="M133.1,84.2a63.193,63.193,0,0,0,15.6,17c10.6,8.2.1,31-.4,42.4-.4,9.1,5,21.7,18.1,30.2,9.4,6.2,2.8,20.2,2.8,27.2s15.2-9.9,15.8-17.9c.7-9.9-1.8-16.9-8.8-24.9-6.5-7.5-14.1-35.6-16.2-48.9a18.8,18.8,0,0,1-.2-4.1c.2-4.7-.4-19.6-13.8-28-16-10-26-.8-32.5,4.7-7.9,6.7-11.1,25.4-9.1,54.4s-3,45.5-6.4,53.9c-7.8,19.1,13.4,5.7,17.3-5.3,5-14.1,8.5-15.2,15.6-26.2,2.8-4.3-.9-18.9-4-25-5.9-11.8-9.3-16.7-9.3-24.7S127.1,87.2,133.1,84.2Z" fill="url(#linear-gradient-4)"/>
    <path id="Path_181" data-name="Path 181" d="M136.2,136s11.3.7,14.4-6.5c.3-.8-1.8,22-2.4,19C147.4,145.4,136.2,136,136.2,136Z" opacity="0.07"/>
    <path id="Path_182" data-name="Path 182" d="M350.1,72.8" fill="#fff"/>
    <path id="Path_183" data-name="Path 183" d="M116.3,188.7s-2.6,16.2-4,23.6a70.1,70.1,0,0,0-1.4,12.1s9.6-12,12.7-16.8c1.9-3-3.9-1.5-4.4-12.5s-.4-18.1-.4-18.1Z" opacity="0.07"/>
    <path id="Path_184" data-name="Path 184" d="M117.1,240.8s8.6-8.4,9-12.8c.5-5.8,4.6-5.5,4.6-1.9s-6.4,30.5-2.5,37.6,7,7,7,7l-21,1.5Z" opacity="0.07"/>
    <path id="Path_185" data-name="Path 185" d="M135.1,270.6s1.2,21.4-6.4,28.5c-15.5,14.5-6.4,33.5-13.3,41.8-5.8,6.9-7.3,26.8-21.2,31.2-5.5,1.8-25.3-10.3-29.3-11.7-8.5-2.9-14.5-19.2-41-27.6-6.2-2,16.3.1,16.3.1L89,353.1l25.2-80.9Z" opacity="0.07"/>
  </g>
</svg>
